<?xml version="1.0" encoding="UTF-8"?>
<svg xmlns="http://www.w3.org/2000/svg" version="1.1" width="1600" height="896" style="background: transparent;">
<path d="M0 0 C528 0 1056 0 1600 0 C1600 295.68 1600 591.36 1600 896 C1072 896 544 896 0 896 C0 600.32 0 304.64 0 0 Z " fill="#FEFEFE" transform="translate(0,0)"/>
<path d="M0 0 C2.50249312 1.93201596 4.83047455 3.94393282 7.1328125 6.109375 C8.06673828 6.96402344 8.06673828 6.96402344 9.01953125 7.8359375 C13.15177559 12.05175532 15.7939979 16.89076211 18.4453125 22.109375 C18.78320801 22.77388672 19.12110352 23.43839844 19.46923828 24.12304688 C26.34975698 38.29517349 25.77113793 54.46174156 20.83398438 69.20361328 C15.82401991 82.82052923 6.51907093 94.51320245 -1.81542969 106.22119141 C-4.35521991 109.79636018 -6.8666001 113.39080738 -9.375 116.98803711 C-11.08868483 119.44353423 -12.80932621 121.89402576 -14.53125 124.34375 C-16.79634681 127.5697568 -19.0380547 130.81047873 -21.265625 134.0625 C-21.80928711 134.84963379 -22.35294922 135.63676758 -22.91308594 136.44775391 C-23.93640281 137.9295699 -24.9531204 139.41597378 -25.96191406 140.90771484 C-26.41791992 141.56465332 -26.87392578 142.2215918 -27.34375 142.8984375 C-27.932771 143.76009521 -27.932771 143.76009521 -28.53369141 144.63916016 C-30.12260477 146.39097932 -31.71285424 147.17466958 -33.8671875 148.109375 C-41.21957346 138.61254314 -48.02891125 128.75157338 -54.86328125 118.87890625 C-57.80299749 114.63389171 -60.76771821 110.40819595 -63.75805664 106.19873047 C-92.64907344 65.52603401 -92.64907344 65.52603401 -89.8671875 38.109375 C-87.2410224 23.40945717 -79.01558753 9.70303566 -66.9296875 0.9921875 C-46.16664598 -12.6335585 -21.08519063 -13.90358619 0 0 Z " fill="#AE3A3A" transform="translate(832.8671875,300.890625)"/>
<path d="M0 0 C0.98484375 0.00128906 1.9696875 0.00257813 2.984375 0.00390625 C16.08104184 0.16106625 27.46988632 4.47657533 37.25 13.4375 C47.01930615 23.94445174 50.85364667 36.87137111 50.62890625 50.91015625 C49.9156076 60.6439393 45.63161378 70.22724865 40.375 78.375 C42.025 78.705 43.675 79.035 45.375 79.375 C45.0965625 80.8290625 45.0965625 80.8290625 44.8125 82.3125 C44.74927655 85.42309378 45.3181627 86.31010531 47.4140625 88.703125 C49.0777454 90.25864275 50.77443519 91.77969104 52.50390625 93.26171875 C54.375 95.375 54.375 95.375 54.2734375 97.50390625 C53.06281027 100.02516904 51.49683157 101.57465806 49.375 103.375 C48.715 103.375 48.055 103.375 47.375 103.375 C46.385 105.355 46.385 105.355 45.375 107.375 C42.375 107.375 42.375 107.375 40.21875 105.546875 C39.4453125 104.74765625 38.671875 103.9484375 37.875 103.125 C37.1015625 102.33609375 36.328125 101.5471875 35.53125 100.734375 C33.375 98.375 33.375 98.375 31.875 96.16796875 C29.43926219 93.2565009 26.77834032 93.08935462 23.15625 92.48046875 C20.18766607 92.36789604 18.18769608 92.83413754 15.375 93.75 C3.50729077 97.49858238 -10.35568944 96.53059552 -21.625 91.375 C-25.2455176 89.33490806 -28.43817985 87.03706074 -31.625 84.375 C-32.34558594 83.77816406 -33.06617188 83.18132812 -33.80859375 82.56640625 C-41.80175111 75.29852593 -46.81589194 64.99122284 -47.828125 54.21191406 C-48.49366017 39.19078536 -46.23033753 26.35128591 -36.03125 14.52734375 C-34.625 13.375 -34.625 13.375 -32.625 13.375 C-32.625 12.715 -32.625 12.055 -32.625 11.375 C-30.5703125 9.7890625 -30.5703125 9.7890625 -27.75 8 C-26.84507812 7.41476562 -25.94015625 6.82953125 -25.0078125 6.2265625 C-16.52707785 1.58468234 -9.68894458 -0.24286273 0 0 Z " fill="#FBFBFB" transform="translate(504.625,497.625)"/>
<path d="M0 0 C2.51404117 2.1079477 4.98770492 4.25535418 7.4375 6.4375 C8.24960937 7.159375 9.06171875 7.88125 9.8984375 8.625 C25.98025437 23.88047846 39.37779077 48.37194886 40.55761719 70.71191406 C40.68010406 75.62544495 40.59805097 80.52582959 40.4375 85.4375 C35.8175 85.4375 31.1975 85.4375 26.4375 85.4375 C26.32535156 83.58511719 26.32535156 83.58511719 26.2109375 81.6953125 C24.50640374 58.21944618 16.64352707 37.15885026 -0.5625 20.4375 C-1.2225 19.7775 -1.8825 19.1175 -2.5625 18.4375 C-2.5625 17.7775 -2.5625 17.1175 -2.5625 16.4375 C-3.42294922 16.05271484 -3.42294922 16.05271484 -4.30078125 15.66015625 C-6.78468042 14.3173921 -8.62692786 12.73503666 -10.75 10.875 C-31.86140911 -6.12540265 -55.06480751 -9.46253572 -81.5625 -7.5625 C-87.48318193 -6.88665151 -92.94027985 -5.51169875 -98.5625 -3.5625 C-99.76261719 -3.15 -100.96273437 -2.7375 -102.19921875 -2.3125 C-125.583163 6.74266873 -143.72949379 25.82144392 -153.7578125 48.49609375 C-155.77406616 53.3605504 -157.22582273 58.3524685 -158.5625 63.4375 C-158.77519531 64.12714844 -158.98789062 64.81679688 -159.20703125 65.52734375 C-161.10995371 72.00275617 -161.17582498 78.73513296 -161.5625 85.4375 C-166.1825 85.4375 -170.8025 85.4375 -175.5625 85.4375 C-176.61727486 56.43119137 -166.01202594 31.79944091 -146.5625 10.4375 C-141.60523595 5.13884617 -136.83249795 0.17281793 -130.5625 -3.5625 C-129.94503906 -3.99691406 -129.32757812 -4.43132812 -128.69140625 -4.87890625 C-116.45839449 -13.47568332 -103.96074793 -18.10749157 -89.5625 -21.5625 C-88.62148438 -21.81 -87.68046875 -22.0575 -86.7109375 -22.3125 C-56.68485873 -29.17560372 -23.45081246 -19.07862708 0 0 Z " fill="#474E58" transform="translate(867.5625,262.5625)"/>
<path d="M0 0 C5.94 0 11.88 0 18 0 C19.25116284 2.95784614 20.50095153 5.91626107 21.75 8.875 C22.09804688 9.69742187 22.44609375 10.51984375 22.8046875 11.3671875 C24.49196754 15.36666611 26.15473556 19.37150548 27.74609375 23.41015625 C31.10782902 31.85987869 34.74256536 40.19929102 38.3125 48.5625 C40.86756967 54.54855143 43.41819451 60.53640568 45.9541626 66.53057861 C46.64951765 68.17244439 47.34673341 69.8135234 48.0458374 71.45379639 C49.03054892 73.7672951 50.00660724 76.08426063 50.98046875 78.40234375 C51.27246658 79.08406143 51.56446442 79.76577911 51.86531067 80.46815491 C53.52602949 84.45137477 54.27281025 87.63686152 55 92 C49.39 92 43.78 92 38 92 C34.8625724 85.30116809 32.36071643 79.08214928 30 72 C16.14 72.33 2.28 72.66 -12 73 C-14.475 78.94 -14.475 78.94 -17 85 C-17.99 87.31 -18.98 89.62 -20 92 C-25.61 92 -31.22 92 -37 92 C-34.4030695 82.36810105 -30.56994588 73.31929565 -26.75 64.125 C-26.04106406 62.40900222 -25.33249216 60.69285399 -24.62426758 58.9765625 C-22.42330941 53.6480735 -20.21225216 48.3238077 -18 43 C-17.27713893 41.25880652 -16.55431942 39.51759579 -15.83154297 37.77636719 C-12.56542538 29.91042914 -9.2935731 22.04688622 -6.01171875 14.1875 C-5.74987289 13.55995819 -5.48802704 12.93241638 -5.21824646 12.28585815 C-3.50206801 8.18000836 -1.75313195 4.09064122 0 0 Z " fill="#474E58" transform="translate(884,499)"/>
<path d="M0 0 C1.19625 0.556875 2.3925 1.11375 3.625 1.6875 C10.22556809 5.62333759 14.78089837 12.96560977 17.33984375 20.06640625 C19.52283375 29.7671488 19.18434824 40.34477456 14 49 C9.19581153 56.51623035 4.2884033 60.75494814 -4 64 C-4.76441406 64.36351562 -5.52882813 64.72703125 -6.31640625 65.1015625 C-9.7997678 66.26775341 -13.1146646 66.38354268 -16.75 66.375 C-17.4608374 66.37338867 -18.1716748 66.37177734 -18.90405273 66.37011719 C-24.82323637 66.23228892 -28.98128489 64.9945348 -34 62 C-35.19625 61.443125 -36.3925 60.88625 -37.625 60.3125 C-44.26504248 56.35312432 -48.7624282 49.00310787 -51.34375 41.87109375 C-53.58557797 32.06309637 -53.00420044 21.55232799 -47.7109375 12.890625 C-42.2747629 5.15788466 -35.00916126 -1.23000978 -25.6796875 -3.5859375 C-16.3720424 -5.02414505 -8.20898272 -4.72139888 0 0 Z " fill="#FCFAFA" transform="translate(817,317)"/>
<path d="M0 0 C0.98484375 0.00128906 1.9696875 0.00257813 2.984375 0.00390625 C16.08104184 0.16106625 27.46988632 4.47657533 37.25 13.4375 C47.01930615 23.94445174 50.85364667 36.87137111 50.62890625 50.91015625 C50.27470179 55.74368487 49.1576873 59.88806671 47.375 64.375 C47.05015625 65.20257812 46.7253125 66.03015625 46.390625 66.8828125 C44.79668965 70.6959963 43.47362049 73.56687518 40.375 76.375 C36.92298361 74.89778578 34.72538064 72.93705999 32.125 70.25 C31.41859375 69.52554688 30.7121875 68.80109375 29.984375 68.0546875 C29.45328125 67.50039063 28.9221875 66.94609375 28.375 66.375 C28.57996094 65.62734375 28.78492188 64.8796875 28.99609375 64.109375 C29.26550781 63.12453125 29.53492188 62.1396875 29.8125 61.125 C30.07933594 60.15046875 30.34617187 59.1759375 30.62109375 58.171875 C30.86988281 57.24890625 31.11867188 56.3259375 31.375 55.375 C31.56707031 54.68148437 31.75914062 53.98796875 31.95703125 53.2734375 C33.69541682 45.37759276 32.14831058 37.00515358 28.015625 30.10546875 C22.50522284 22.45055441 15.81730307 18.26055212 6.8125 15.625 C-3.3644213 14.5812132 -11.13140312 16.66674851 -19.546875 22.56640625 C-25.23945081 27.52065926 -29.30879497 34.51483464 -29.92578125 42.046875 C-29.94502601 43.40611938 -29.94836064 44.76566277 -29.9375 46.125 C-29.93331055 46.8358374 -29.92912109 47.5466748 -29.92480469 48.27905273 C-29.80555385 53.83626857 -29.01871652 58.38031877 -26.625 63.375 C-26.35816406 63.99632812 -26.09132813 64.61765625 -25.81640625 65.2578125 C-22.39745679 72.2780554 -16.00647184 76.24501144 -8.84179688 78.83447266 C-4.95920578 79.78117493 -1.19574138 79.2526182 2.75 78.9375 C11.84813081 78.50681925 11.84813081 78.50681925 15.83203125 81.58984375 C18.26426143 84.07078813 20.3945503 86.52396702 22.375 89.375 C17.40912036 94.75652595 12.25602487 95.25667611 5.2421875 95.6328125 C-8.95610089 96.12582982 -20.47618873 93.68798643 -31.625 84.375 C-32.34558594 83.77816406 -33.06617188 83.18132812 -33.80859375 82.56640625 C-41.80175111 75.29852593 -46.81589194 64.99122284 -47.828125 54.21191406 C-48.49366017 39.19078536 -46.23033753 26.35128591 -36.03125 14.52734375 C-34.625 13.375 -34.625 13.375 -32.625 13.375 C-32.625 12.715 -32.625 12.055 -32.625 11.375 C-30.5703125 9.7890625 -30.5703125 9.7890625 -27.75 8 C-26.84507812 7.41476562 -25.94015625 6.82953125 -25.0078125 6.2265625 C-16.52707785 1.58468234 -9.68894458 -0.24286273 0 0 Z " fill="#454C56" transform="translate(504.625,497.625)"/>
<path d="M0 0 C6.09634844 4.51865022 9.91597665 11.54790176 11.2421875 18.90234375 C11.2421875 23.19234375 11.2421875 27.48234375 11.2421875 31.90234375 C-4.5978125 31.90234375 -20.4378125 31.90234375 -36.7578125 31.90234375 C-33.07631145 40.18572112 -31.57721442 43.4938865 -23.7578125 46.90234375 C-14.70455615 48.41121981 -8.10275837 44.79897433 -0.7578125 39.90234375 C3.6971875 43.86234375 3.6971875 43.86234375 8.2421875 47.90234375 C3.69038603 54.1311247 -0.41688344 56.6491873 -7.7578125 58.90234375 C-8.37269531 59.09441406 -8.98757813 59.28648437 -9.62109375 59.484375 C-20.12288848 61.5386566 -31.05217347 60.3420979 -40.03515625 54.39453125 C-45.8539851 49.73513385 -49.41337961 43.93564242 -51.7578125 36.90234375 C-51.90742714 33.99348993 -51.98899561 31.12440517 -52.0078125 28.21484375 C-52.0284375 27.43689453 -52.0490625 26.65894531 -52.0703125 25.85742188 C-52.12933812 17.01095645 -49.22758144 9.5413467 -43.00390625 3.08203125 C-31.24425935 -7.91818639 -13.5072609 -8.43453403 0 0 Z " fill="#464D57" transform="translate(1029.7578125,533.09765625)"/>
<path d="M0 0 C8.45477484 5.63651656 14.71028546 12.00853412 16.828125 22.21875 C16.828125 26.50875 16.828125 30.79875 16.828125 35.21875 C0.988125 35.21875 -14.851875 35.21875 -31.171875 35.21875 C-30.181875 38.51875 -29.191875 41.81875 -28.171875 45.21875 C-26.851875 45.87875 -25.531875 46.53875 -24.171875 47.21875 C-23.12 47.755 -22.068125 48.29125 -20.984375 48.84375 C-15.69582234 51.0266845 -10.84052231 51.2645189 -5.48046875 49.1640625 C-1.87159513 47.38851769 1.48127346 45.44998436 4.828125 43.21875 C9.283125 47.17875 9.283125 47.17875 13.828125 51.21875 C9.83593298 57.04069669 4.5215259 60.72824641 -2.296875 62.53125 C-13.33500097 64.51734879 -23.42937831 63.85969821 -33.296875 58.53125 C-39.71053177 53.37243912 -45.36327051 47.29612366 -46.48706055 38.84985352 C-46.6465954 36.19356016 -46.69086337 33.56723259 -46.671875 30.90625 C-46.66542969 29.97143799 -46.65898438 29.03662598 -46.65234375 28.07348633 C-46.46760073 21.1231379 -45.62204568 15.7733426 -41.171875 10.21875 C-40.59050781 9.48527344 -40.00914062 8.75179687 -39.41015625 7.99609375 C-30.34042155 -2.14066856 -12.68200758 -6.16962531 0 0 Z " fill="#454C55" transform="translate(825.171875,529.78125)"/>
<path d="M0 0 C0.87398437 0.56074219 0.87398437 0.56074219 1.765625 1.1328125 C5.69846145 4.0156198 7.71757806 7.38847247 9 12 C9.38710574 15.66186181 9.35039347 19.28605723 9.29296875 22.96484375 C9.28872391 23.99815323 9.28447906 25.03146271 9.28010559 26.09608459 C9.26339394 29.37682822 9.22575511 32.65694392 9.1875 35.9375 C9.17244348 38.16991297 9.15875677 40.40233562 9.14648438 42.63476562 C9.11351493 48.09008346 9.06178414 53.54493549 9 59 C4.05 59 -0.9 59 -6 59 C-6.33 57.35 -6.66 55.7 -7 54 C-7.680625 54.598125 -8.36125 55.19625 -9.0625 55.8125 C-16.68649085 61.48993999 -23.61252897 61.97560322 -33 61 C-38.41226433 59.4319608 -42.45493953 56.37919234 -46 52 C-48.43297201 46.78648855 -48.99554875 41.40880931 -47.3828125 35.88671875 C-44.99447264 30.27517686 -41.49316258 27.47948256 -36 25 C-26.58969268 21.49759523 -15.88839383 21.82786162 -6 22 C-6.31049726 20.56206608 -6.6234776 19.1246682 -6.9375 17.6875 C-7.11152344 16.88699219 -7.28554688 16.08648438 -7.46484375 15.26171875 C-7.99886159 12.854599 -7.99886159 12.854599 -9 10 C-14.82483996 7.69153808 -22.80720588 8.13854517 -28.5 10.375 C-29.325 10.91125 -30.15 11.4475 -31 12 C-32.33333333 12.66666667 -33.66666667 13.33333333 -35 14 C-35 14.66 -35 15.32 -35 16 C-35.66 16 -36.32 16 -37 16 C-38.98046875 13.91796875 -38.98046875 13.91796875 -41.1875 11.1875 C-41.92355469 10.29417969 -42.65960937 9.40085937 -43.41796875 8.48046875 C-43.94003906 7.66191406 -44.46210937 6.84335937 -45 6 C-44 3 -44 3 -42.03125 1.68359375 C-29.49715396 -4.48674056 -12.51401251 -8.18223895 0 0 Z " fill="#474E58" transform="translate(689,532)"/>
<path d="M0 0 C4.95 0 9.9 0 15 0 C15 18.15 15 36.3 15 55 C15.66 55 16.32 55 17 55 C17.24363281 54.42765625 17.48726562 53.8553125 17.73828125 53.265625 C19.22517298 50.59566462 20.98083908 48.86170993 23.1875 46.75 C30.60580207 39.61936204 30.60580207 39.61936204 36.52734375 31.28515625 C39.91503028 28.15435591 42.33226128 28.48323403 46.81640625 28.56054688 C47.78449219 28.60244141 48.75257813 28.64433594 49.75 28.6875 C50.73355469 28.71005859 51.71710937 28.73261719 52.73046875 28.75585938 C55.1551947 28.81471195 57.57681983 28.89686569 60 29 C56.5100003 33.16031905 52.95634739 37.14462758 49.0625 40.9375 C40.96589006 48.66863343 40.96589006 48.66863343 35 58 C39.4195295 63.60988988 43.92971485 69.12834668 48.5625 74.5625 C61 89.17452321 61 89.17452321 61 91 C45.19892379 92.91577815 45.19892379 92.91577815 40.16552734 89.90136719 C36.92932569 86.97815029 34.54175023 83.44367778 32.18652344 79.796875 C30.30080303 76.94113381 28.16217437 74.34013565 26 71.6875 C25.29875 70.78386719 24.5975 69.88023437 23.875 68.94921875 C23.25625 68.30597656 22.6375 67.66273438 22 67 C19.0652126 66.70742722 19.0652126 66.70742722 17.34448242 68.19458008 C15.60841346 70.52583665 15.57585248 71.99686803 15.48828125 74.88671875 C15.45283203 75.82451172 15.41738281 76.76230469 15.38085938 77.72851562 C15.35830078 78.70498047 15.33574219 79.68144531 15.3125 80.6875 C15.27833984 81.67556641 15.24417969 82.66363281 15.20898438 83.68164062 C15.12650431 86.12069399 15.06157567 88.56032939 15 91 C10.05 91 5.1 91 0 91 C0 60.97 0 30.94 0 0 Z " fill="#454C56" transform="translate(714,500)"/>
<path d="M0 0 C5.28 0 10.56 0 16 0 C16 20.46 16 40.92 16 62 C11.05 62 6.1 62 1 62 C1 59.36 1 56.72 1 54 C0.38125 54.721875 -0.2375 55.44375 -0.875 56.1875 C-6.31888397 61.52464114 -12.5704973 64.29955256 -20.1875 64.5 C-26.69738789 64.19119763 -30.78314507 62.9649396 -35.75 58.5625 C-36.4925 57.716875 -37.235 56.87125 -38 56 C-38.556875 55.401875 -39.11375 54.80375 -39.6875 54.1875 C-43.42141538 47.9643077 -43.27593172 40.83588934 -43.1953125 33.8125 C-43.1924826 32.86938965 -43.18965271 31.9262793 -43.18673706 30.95458984 C-43.17562442 27.96959244 -43.15053672 24.98490531 -43.125 22 C-43.11495866 19.96484811 -43.10583484 17.92969148 -43.09765625 15.89453125 C-43.07571435 10.92956963 -43.04124673 5.96483725 -43 1 C-38.05 1 -33.1 1 -28 1 C-27.98541748 2.1144751 -27.97083496 3.2289502 -27.95581055 4.37719727 C-27.8975792 8.5353916 -27.82034886 12.69305841 -27.73754883 16.85083008 C-27.70441587 18.64599 -27.67634813 20.44125117 -27.65356445 22.23657227 C-27.61980336 24.82612012 -27.56747875 27.41474971 -27.51171875 30.00390625 C-27.50532883 30.79898087 -27.4989389 31.59405548 -27.49235535 32.41322327 C-27.33823075 38.33288586 -26.43376735 43.52078886 -22.1171875 47.91796875 C-17.32064455 50.36933848 -11.61125777 49.31649706 -6.5 48.3125 C-3.80208333 47.19791667 -3.80208333 47.19791667 -2.6875 44.5 C-2.460625 43.675 -2.23375 42.85 -2 42 C-1.505 41.01 -1.505 41.01 -1 40 C-0.84266751 37.01236645 -0.74138585 34.04458849 -0.68359375 31.0546875 C-0.66281265 30.1696756 -0.64203156 29.2846637 -0.62062073 28.37283325 C-0.55513402 25.54030259 -0.49624438 22.70767775 -0.4375 19.875 C-0.39431394 17.95702143 -0.35069963 16.03905246 -0.30664062 14.12109375 C-0.19945353 9.41415949 -0.0981836 4.70713033 0 0 Z " fill="#474E58" transform="translate(612,529)"/>
<path d="M0 0 C4.95 0 9.9 0 15 0 C15 5.61 15 11.22 15 17 C20.28 17 25.56 17 31 17 C31 21.29 31 25.58 31 30 C25.72 30 20.44 30 15 30 C15.07417456 34.18191029 15.15714537 38.36174779 15.26245117 42.54272461 C15.29560557 43.96351202 15.32366692 45.38442813 15.34643555 46.80541992 C15.38015847 48.8539082 15.43247745 50.9012272 15.48828125 52.94921875 C15.51446533 54.17987061 15.54064941 55.41052246 15.56762695 56.6784668 C16.0674799 60.51838741 17.23921411 63.23921411 20 66 C21.84891946 66.23363881 23.70488031 66.41303635 25.5625 66.5625 C27.356875 66.706875 29.15125 66.85125 31 67 C31 71.29 31 75.58 31 80 C22.94575857 81.61084829 14.94536078 82.50967241 7.6171875 78.20703125 C5.23157543 76.42646572 3.61693221 74.48758802 2 72 C1.46076904 71.20190918 1.46076904 71.20190918 0.91064453 70.38769531 C-0.4740385 66.75707867 -0.24408885 63.1269369 -0.1953125 59.296875 C-0.1924826 58.45908508 -0.18965271 57.62129517 -0.18673706 56.75811768 C-0.17556349 54.08859837 -0.15046421 51.4194175 -0.125 48.75 C-0.11496654 46.93750485 -0.10584133 45.12500444 -0.09765625 43.3125 C-0.0756334 38.87487007 -0.04112304 34.43749237 0 30 C-3.96 30 -7.92 30 -12 30 C-12 25.71 -12 21.42 -12 17 C-8.04 17 -4.08 17 0 17 C0 11.39 0 5.78 0 0 Z " fill="#464D56" transform="translate(1108,512)"/>
<path d="M0 0 C2.31243792 -0.02685412 4.6249627 -0.04632841 6.9375 -0.0625 C8.22527344 -0.07410156 9.51304687 -0.08570313 10.83984375 -0.09765625 C14 0 14 0 15 1 C15.27938424 2.53661334 15.52211065 4.07991018 15.75 5.625 C19.74463354 28.02968375 31.39449641 49.40118574 50 63 C59.84882029 69.78290147 69.93432937 75.42939691 81 80 C80.45144652 84.571279 79.58255197 88.67435795 78 93 C59.87631054 90.65786167 42.10012671 78.30786064 30 65 C30 64.34 30 63.68 30 63 C29.11054687 62.62294922 29.11054687 62.62294922 28.203125 62.23828125 C16.0793982 55.42405892 7.09282044 33.71417883 3.31103516 20.61328125 C-0.32329576 6.55643794 -0.32329576 6.55643794 0 0 Z " fill="#858A93" transform="translate(692,359)"/>
<path d="M0 0 C4.95 0 9.9 0 15 0 C13.87140253 20.8790532 5.24238684 39.67604141 -7.25 56.1875 C-7.67434326 56.75267334 -8.09868652 57.31784668 -8.53588867 57.90014648 C-10.63288281 60.59497337 -11.68844282 61.89614761 -15 63 C-15.67589364 64.3286798 -16.34093054 65.66289504 -17 67 C-26.28368088 76.83848252 -37.31989609 83.45544004 -49.5 89 C-50.37317871 89.39832031 -51.24635742 89.79664063 -52.14599609 90.20703125 C-53.38857178 90.75423828 -53.38857178 90.75423828 -54.65625 91.3125 C-55.39681641 91.63863281 -56.13738281 91.96476562 -56.90039062 92.30078125 C-59 93 -59 93 -63 93 C-63.50961846 91.60764957 -64.00724909 90.21090882 -64.5 88.8125 C-64.7784375 88.03519531 -65.056875 87.25789063 -65.34375 86.45703125 C-66.0353168 83.86777221 -66.11370917 81.66742762 -66 79 C-65.18917969 78.70867187 -64.37835937 78.41734375 -63.54296875 78.1171875 C-37.82968108 68.59818228 -18.61411321 51.85054667 -6.87255859 26.99707031 C-3.12538599 18.42072115 -0.50171739 9.3653912 0 0 Z " fill="#858A93" transform="translate(893,359)"/>
<path d="M0 0 C5.28 0 10.56 0 16 0 C16 30.36 16 60.72 16 92 C10.72 92 5.44 92 0 92 C0 61.64 0 31.28 0 0 Z " fill="#4C535C" transform="translate(948,499)"/>
<path d="M0 0 C0.87398437 0.56074219 0.87398437 0.56074219 1.765625 1.1328125 C5.69846145 4.0156198 7.71757806 7.38847247 9 12 C9.38710574 15.66186181 9.35039347 19.28605723 9.29296875 22.96484375 C9.28872391 23.99815323 9.28447906 25.03146271 9.28010559 26.09608459 C9.26339394 29.37682822 9.22575511 32.65694392 9.1875 35.9375 C9.17244348 38.16991297 9.15875677 40.40233562 9.14648438 42.63476562 C9.11351493 48.09008346 9.06178414 53.54493549 9 59 C4.05 59 -0.9 59 -6 59 C-6 57.02 -6 55.04 -6 53 C-7.98 52.34 -9.96 51.68 -12 51 C-11.34 50.67 -10.68 50.34 -10 50 C-10.2475 49.2575 -10.495 48.515 -10.75 47.75 C-11 45 -11 45 -9.1875 42.6875 C-7 41 -7 41 -5 41 C-5.020625 39.741875 -5.04125 38.48375 -5.0625 37.1875 C-5.10886083 34.35948913 -4.91692961 32.75078884 -4 30 C-4.99 29.67 -5.98 29.34 -7 29 C-5.515 27.515 -5.515 27.515 -4 26 C-4.66 25.01 -5.32 24.02 -6 23 C-6.41580929 21.34763368 -6.76539345 19.67777815 -7.0625 18 C-7.56510094 15.20869559 -8.10053023 12.6984093 -9 10 C-14.82483996 7.69153808 -22.80720588 8.13854517 -28.5 10.375 C-29.325 10.91125 -30.15 11.4475 -31 12 C-32.33333333 12.66666667 -33.66666667 13.33333333 -35 14 C-35 14.66 -35 15.32 -35 16 C-35.66 16 -36.32 16 -37 16 C-38.98046875 13.91796875 -38.98046875 13.91796875 -41.1875 11.1875 C-41.92355469 10.29417969 -42.65960937 9.40085937 -43.41796875 8.48046875 C-43.94003906 7.66191406 -44.46210937 6.84335937 -45 6 C-44 3 -44 3 -42.03125 1.68359375 C-29.49715396 -4.48674056 -12.51401251 -8.18223895 0 0 Z " fill="#454C56" transform="translate(689,532)"/>
<path d="M0 0 C2.35125 0.061875 2.35125 0.061875 4.75 0.125 C4.75 4.745 4.75 9.365 4.75 14.125 C-0.08398438 14.7109375 -0.08398438 14.7109375 -4.91796875 15.296875 C-9.77491429 16.50399394 -12.23649978 18.48697947 -14.859375 22.72607422 C-16.56882571 26.90426467 -16.72505612 30.33878104 -16.76171875 34.8046875 C-16.77966995 35.61745148 -16.79762115 36.43021545 -16.81611633 37.26760864 C-16.86998358 39.8450208 -16.90403836 42.4222503 -16.9375 45 C-16.97069399 46.75523362 -17.00518557 48.51044321 -17.04101562 50.265625 C-17.12812276 54.55210617 -17.18838972 58.83777436 -17.25 63.125 C-22.53 63.125 -27.81 63.125 -33.25 63.125 C-33.25 42.665 -33.25 22.205 -33.25 1.125 C-27.97 1.125 -22.69 1.125 -17.25 1.125 C-16.92 3.765 -16.59 6.405 -16.25 9.125 C-15.79109375 8.64289062 -15.3321875 8.16078125 -14.859375 7.6640625 C-14.24578125 7.03242187 -13.6321875 6.40078125 -13 5.75 C-12.39671875 5.12351562 -11.7934375 4.49703125 -11.171875 3.8515625 C-7.53685743 0.58595729 -4.85717103 -0.12782029 0 0 Z " fill="#4D525C" transform="translate(1086.25,527.875)"/>
<path d="M0 0 C5.62219846 4.66522851 11.16010796 9.51259405 16 15 C16 15.66 16 16.32 16 17 C16.59941406 17.26167969 17.19882812 17.52335938 17.81640625 17.79296875 C20.13061764 19.07220188 21.29659445 20.26250442 22.9375 22.3125 C26.41100495 26.61809806 30.35500269 30.39417001 34.3671875 34.19140625 C35.53661149 35.31494477 36.70588028 36.43864487 37.875 37.5625 C38.48085938 38.12646484 39.08671875 38.69042969 39.7109375 39.27148438 C41.4296875 40.94140625 41.4296875 40.94140625 44 44 C43.59596346 47.79586458 41.86853357 49.56609273 39 52 C38.34 52 37.68 52 37 52 C36.34 53.32 35.68 54.64 35 56 C32 56 32 56 29.984375 54.3125 C29.24703125 53.549375 28.5096875 52.78625 27.75 52 C27.02296875 51.2575 26.2959375 50.515 25.546875 49.75 C23.62257887 47.6722324 21.77577443 45.573 19.9375 43.421875 C15.00160496 37.74812625 9.59918761 32.52886965 4.25 27.25 C2.18976882 25.21648376 0.13297125 23.17958086 -1.921875 21.140625 C-2.82518555 20.24891602 -3.72849609 19.35720703 -4.65917969 18.43847656 C-6.6380804 16.37701846 -8.35737826 14.33168189 -10 12 C-8.52278578 8.54798361 -6.56205999 6.35038064 -3.875 3.75 C-3.15054687 3.04359375 -2.42609375 2.3371875 -1.6796875 1.609375 C-1.12539063 1.07828125 -0.57109375 0.5471875 0 0 Z " fill="#AA3F3F" transform="translate(515,549)"/>
<path d="M0 0 C2.80025297 1.02316935 3.87630726 1.80306813 5.484375 4.36328125 C6.11085938 5.82314453 6.11085938 5.82314453 6.75 7.3125 C7.17796875 8.25738281 7.6059375 9.20226562 8.046875 10.17578125 C9 14 9 14 9 27 C-6.18 27 -21.36 27 -37 27 C-36 23 -36 23 -35 20 C-34.34 20 -33.68 20 -33 20 C-33 19.34 -33 18.68 -33 18 C-34.65 17.67 -36.3 17.34 -38 17 C-38.50537432 11.69356959 -37.30655751 9.13319688 -34 5 C-30.562545 1.68811413 -27.8163766 1.56754449 -23.125 1.5625 C-17.60860939 1.70555992 -13.96226816 1.82919141 -10 6 C-7.69052197 9.63231197 -6 12.64635684 -6 17 C-5.34 17 -4.68 17 -4 17 C-3.505 15.515 -3.505 15.515 -3 14 C-2.34 13.67 -1.68 13.34 -1 13 C-0.34444881 10.47266765 -0.34444881 10.47266765 0 8 C0.33 8 0.66 8 1 8 C0.505 4.04 0.505 4.04 0 0 Z " fill="#494F59" transform="translate(833,538)"/>
<path d="M0 0 C0.1875 2.625 0.1875 2.625 0 5 C-0.66 5 -1.32 5 -2 5 C-2.33 5.99 -2.66 6.98 -3 8 C-2.37609375 8.24105469 -1.7521875 8.48210938 -1.109375 8.73046875 C1.53336113 10.32100438 1.86910951 11.40066754 2.75 14.3125 C2.99234375 15.07175781 3.2346875 15.83101562 3.484375 16.61328125 C4 19 4 19 4 24 C-6.56 24 -17.12 24 -28 24 C-27.34 19.71 -26.68 15.42 -26 11 C-26 10.67 -26 10.34 -26 10 C-26.66 10 -27.32 10 -28 10 C-28 10.99 -28 11.98 -28 13 C-32.01804691 13.84098656 -35.01803543 14.05404945 -39 13 C-35.91216811 6.63134672 -30.61679874 2.47492292 -24.5625 -0.9375 C-17.77544818 -3.14533614 -5.9125242 -3.9416828 0 0 Z " fill="#4A505B" transform="translate(1021,530)"/>
<path d="M0 0 C3.2919402 2.65941436 4.46545069 6.1275855 5.91796875 9.96875 C6.18007645 10.64546753 6.44218414 11.32218506 6.7122345 12.01940918 C7.26307916 13.44685059 7.81001083 14.87580739 8.35327148 16.30615234 C9.1859055 18.49580679 10.03235725 20.67973366 10.88085938 22.86328125 C11.41488963 24.25228644 11.94812023 25.6415994 12.48046875 27.03125 C12.73354294 27.68444214 12.98661713 28.33763428 13.24736023 29.01062012 C14.31365881 31.83508062 15 33.95152265 15 37 C5.76 37 -3.48 37 -13 37 C-12.23293182 31.63052276 -11.47669544 28.12777463 -9.53125 23.26171875 C-9.17069519 22.35145683 -9.17069519 22.35145683 -8.80285645 21.42280579 C-8.04236396 19.50810456 -7.27129624 17.59787087 -6.5 15.6875 C-5.9823902 14.38764145 -5.46545702 13.08751324 -4.94921875 11.78710938 C-1.23074269 2.46148539 -1.23074269 2.46148539 0 0 Z " fill="#F6F8F8" transform="translate(892,519)"/>
<path d="M0 0 C2.78848662 1.77449148 4.03115485 2.97416387 5.75 5.75 C6.54828193 9.78132375 6.65440654 13.92629956 4.80078125 17.6640625 C2.28840294 20.88180885 -0.2734806 22.8978887 -4.25 23.75 C-9.56439197 23.56020029 -12.43842322 22.45267459 -16.25 18.75 C-18.94542917 14.70685624 -18.91452365 11.49891289 -18.25 6.75 C-16.62854397 3.56499709 -15.27671736 1.52888904 -12.4375 -0.625 C-7.94955328 -1.90727049 -4.33725194 -1.66817382 0 0 Z " fill="#464C57" transform="translate(806.25,337.25)"/>
<path d="M0 0 C2.69906618 2.14592422 4.80328916 4.7158378 5.83203125 8.0078125 C5.83203125 9.6578125 5.83203125 11.3078125 5.83203125 13.0078125 C-4.72796875 13.0078125 -15.28796875 13.0078125 -26.16796875 13.0078125 C-22.60748307 2.32635547 -22.60748307 2.32635547 -18.52734375 -0.17578125 C-12.83009766 -2.14717932 -5.55722815 -2.54330802 0 0 Z " fill="#F8FAFB" transform="translate(1019.16796875,540.9921875)"/>
<path d="M0 0 C3.95570894 1.26582686 5.67647362 3.48235779 7.875 7 C9 10 9 10 9 14 C-1.23 14 -11.46 14 -22 14 C-20.85221675 5.96551724 -20.85221675 5.96551724 -17 2 C-11.9093124 -1.39379173 -5.94145634 -0.54634081 0 0 Z " fill="#F9FAFB" transform="translate(817,540)"/>
<path d="M0 0 C0.71495327 6.79205607 0.71495327 6.79205607 -1.1953125 10.01953125 C-4.51394682 13.98021291 -7.3399444 16.65906888 -12.62109375 17.3359375 C-17.03335363 17.39713389 -20.1764896 17.40368157 -24.1875 15.4375 C-26 13 -26 13 -26.5625 9.5 C-26 6 -26 6 -24.5 3.6875 C-17.1955334 -1.24301495 -8.44320339 -0.21345177 0 0 Z " fill="#F6F7F8" transform="translate(683,564)"/>
<path d="M0 0 C1.60875 0.020625 3.2175 0.04125 4.875 0.0625 C4.875 4.6825 4.875 9.3025 4.875 14.0625 C1.843125 14.43375 1.843125 14.43375 -1.25 14.8125 C-6.62097409 15.62078182 -10.01651558 16.54094193 -14.125 20.0625 C-15.445 18.0825 -16.765 16.1025 -18.125 14.0625 C-19.115 14.5575 -19.115 14.5575 -20.125 15.0625 C-19.465 13.7425 -18.805 12.4225 -18.125 11.0625 C-17.135 11.0625 -16.145 11.0625 -15.125 11.0625 C-15.03089844 10.46824219 -14.93679688 9.87398437 -14.83984375 9.26171875 C-13.96527084 6.57109279 -12.86946617 5.63962545 -10.6875 3.875 C-9.76130859 3.11123047 -9.76130859 3.11123047 -8.81640625 2.33203125 C-5.74750337 0.0285822 -3.78662713 -0.0485465 0 0 Z " fill="#484F58" transform="translate(1086.125,527.9375)"/>
<path d="M0 0 C-0.66 0.66 -1.32 1.32 -2 2 C-5.125 1.625 -5.125 1.625 -8 1 C-8 0.01 -8 -0.98 -8 -2 C-9.299375 -1.938125 -9.299375 -1.938125 -10.625 -1.875 C-14 -2 -14 -2 -16.65234375 -2.99609375 C-20.85030717 -4.25499293 -24.58547548 -4.25612113 -28.9375 -4.1875 C-29.71029297 -4.18685547 -30.48308594 -4.18621094 -31.27929688 -4.18554688 C-35.93684946 -4.15011325 -40.39428345 -3.76470072 -45 -3 C-45.78375 -2.87625 -46.5675 -2.7525 -47.375 -2.625 C-48.179375 -2.315625 -48.179375 -2.315625 -49 -2 C-49.33 -1.01 -49.66 -0.02 -50 1 C-54.455 1.495 -54.455 1.495 -59 2 C-58 -1 -58 -1 -55.62890625 -2.31640625 C-35.69768648 -10.4158446 -19.24834958 -8.93573017 0 0 Z " fill="#A25254" transform="translate(830,299)"/>
<path d="M0 0 C2.75006608 -0.0270203 5.49986546 -0.04684883 8.25 -0.0625 C9.02730469 -0.07087891 9.80460938 -0.07925781 10.60546875 -0.08789062 C11.73662109 -0.09272461 11.73662109 -0.09272461 12.890625 -0.09765625 C13.92751465 -0.10551147 13.92751465 -0.10551147 14.98535156 -0.11352539 C17.09973898 0.00562029 18.96641515 0.42381763 21 1 C20.67 1.99 20.34 2.98 20 4 C17.4375 5.1875 17.4375 5.1875 15 6 C15 6.66 15 7.32 15 8 C15.66 8.33 16.32 8.66 17 9 C16.34 10.32 15.68 11.64 15 13 C11.37 12.67 7.74 12.34 4 12 C4 11.67 4 11.34 4 11 C5.98 11 7.96 11 10 11 C8.35 10.67 6.7 10.34 5 10 C4.57682292 7.98177083 4.15364583 5.96354167 3.73046875 3.9453125 C3.07691162 1.62953451 3.07691162 1.62953451 0 0 Z " fill="#4C535D" transform="translate(802,528)"/>
<path d="M0 0 C0.8125 1.6875 0.8125 1.6875 1 4 C-1.375 6.6875 -1.375 6.6875 -4 9 C-4.33 9.33 -4.66 9.66 -5 10 C-4.59070014 12.05396726 -4.59070014 12.05396726 -4 14 C-2.68 13.01 -1.36 12.02 0 11 C0.33 11.99 0.66 12.98 1 14 C-0.98 14.99 -0.98 14.99 -3 16 C-3 16.66 -3 17.32 -3 18 C-3.66 18 -4.32 18 -5 18 C-6.98046875 15.91796875 -6.98046875 15.91796875 -9.1875 13.1875 C-9.92355469 12.29417969 -10.65960937 11.40085937 -11.41796875 10.48046875 C-11.94003906 9.66191406 -12.46210937 8.84335937 -13 8 C-12 5 -12 5 -9.78515625 3.61328125 C-8.43744141 2.96939453 -8.43744141 2.96939453 -7.0625 2.3125 C-6.16660156 1.87550781 -5.27070312 1.43851563 -4.34765625 0.98828125 C-2 0 -2 0 0 0 Z " fill="#52555F" transform="translate(657,530)"/>
<path d="M0 0 C0.609375 1.8046875 0.609375 1.8046875 1 4 C-1.02291546 7.61234904 -2.53871879 9.6924792 -6 12 C-6 13.32 -6 14.64 -6 16 C-7.33333333 17.33333333 -8.66666667 18.66666667 -10 20 C-10 21.32 -10 22.64 -10 24 C-11.65848177 25.01351664 -13.32665961 26.01120795 -15 27 C-17.21168225 29.94236782 -17.21168225 29.94236782 -19 33 C-19.66 33.99 -20.32 34.98 -21 36 C-21.33 35.34 -21.66 34.68 -22 34 C-22.99 33.67 -23.98 33.34 -25 33 C-24.30648437 32.35417969 -23.61296875 31.70835937 -22.8984375 31.04296875 C-19.34032176 27.48109709 -16.52791701 23.41068575 -13.625 19.3125 C-13.05499268 18.51537598 -12.48498535 17.71825195 -11.89770508 16.89697266 C-7.89510907 11.29071584 -3.91582926 5.6672729 0 0 Z " fill="#F8E7E3" transform="translate(824,416)"/>
<path d="M0 0 C0.33 0 0.66 0 1 0 C2.50397537 5.39024772 3.38763148 10.38165044 3.375 16 C3.37411377 16.72405029 3.37322754 17.44810059 3.37231445 18.1940918 C3.18517312 26.96883558 1.97818076 38.19960526 -4 45 C-3.5190434 41.79362263 -2.93998825 38.80932116 -1.96484375 35.7109375 C-0.34165562 29.30377125 -0.83078113 22.68335965 -0.9375 16.125 C-0.97388713 13.50259564 -1.00197273 10.88037494 -1.02734375 8.2578125 C-1.04531006 7.1042627 -1.06327637 5.95071289 -1.08178711 4.76220703 C-1 2 -1 2 0 0 Z " fill="#9C4A49" transform="translate(854,331)"/>
<path d="M0 0 C1.11375 0.7425 1.11375 0.7425 2.25 1.5 C-1.37014948 2.66202329 -4.66039134 2.49965705 -8.4375 2.375 C-18.97529948 2.33136522 -25.32055227 5.42334993 -33.75 11.5 C-34.74 12.16 -35.73 12.82 -36.75 13.5 C-36.75 12.18 -36.75 10.86 -36.75 9.5 C-35.43 9.17 -34.11 8.84 -32.75 8.5 C-32.75 7.84 -32.75 7.18 -32.75 6.5 C-30.44 5.51 -28.13 4.52 -25.75 3.5 C-25.75 2.84 -25.75 2.18 -25.75 1.5 C-17.78583947 -1.46013046 -8.04499186 -3.98454786 0 0 Z " fill="#9A4646" transform="translate(809.75,311.5)"/>
<path d="M0 0 C2.64 0.99 5.28 1.98 8 3 C8.144375 4.11375 8.28875 5.2275 8.4375 6.375 C8.78372035 9.82142047 8.78372035 9.82142047 10 12 C9.401875 12.12375 8.80375 12.2475 8.1875 12.375 C5.73768652 12.95475985 5.73768652 12.95475985 3 15 C1.5 13.625 1.5 13.625 0 12 C0 11.34 0 10.68 0 10 C-0.66 9.67 -1.32 9.34 -2 9 C-2.625 6.9375 -2.625 6.9375 -3 5 C-2.01 4.34 -1.02 3.68 0 3 C0 2.01 0 1.02 0 0 Z " fill="#AD3C3B" transform="translate(521,564)"/>
<path d="M0 0 C1 3 1 3 0.22265625 5.05078125 C-0.35162109 6.17033203 -0.35162109 6.17033203 -0.9375 7.3125 C-2.73599985 11.09427709 -3.30988546 13.76489869 -3 18 C-3.33 18.66 -3.66 19.32 -4 20 C-4.66 20 -5.32 20 -6 20 C-5.44745544 35.10606425 -5.44745544 35.10606425 -3 50 C-3.66 50 -4.32 50 -5 50 C-10.25143204 33.77682603 -9.26204095 18.53352651 -1.75 3.1875 C-1.1725 2.135625 -0.595 1.08375 0 0 Z " fill="#9B4F4D" transform="translate(751,318)"/>
<path d="M0 0 C0.66 0 1.32 0 2 0 C2.91788908 1.39383157 3.83208503 2.79024861 4.7265625 4.19921875 C7.04932964 7.48386799 9.83248517 10.51596285 13 13 C13.99 13 14.98 13 16 13 C15.67 13.99 15.34 14.98 15 16 C16.65 16.33 18.3 16.66 20 17 C19.67 18.98 19.34 20.96 19 23 C13.50622498 18.76194499 8.95217837 13.99519564 4.4921875 8.71484375 C2.43767643 6.35376951 0.24530115 4.17926289 -2 2 C-1.34 1.34 -0.68 0.68 0 0 Z " fill="#F7EBE8" transform="translate(530,560)"/>
<path d="M0 0 C0.66 0.33 1.32 0.66 2 1 C0.40844267 5.87826448 -2.39877941 9.56809011 -5.4375 13.625 C-5.92798828 14.29273438 -6.41847656 14.96046875 -6.92382812 15.6484375 C-9.13811854 18.63668368 -11.31688368 21.41349744 -14 24 C-13 15.42857143 -13 15.42857143 -12 12 C-11.34 12 -10.68 12 -10 12 C-10 11.34 -10 10.68 -10 10 C-8.35 10 -6.7 10 -5 10 C-5 9.01 -5 8.02 -5 7 C-4.34 7 -3.68 7 -3 7 C-2.67 5.35 -2.34 3.7 -2 2 C-1.34 2 -0.68 2 0 2 C0 1.34 0 0.68 0 0 Z " fill="#9C4C48" transform="translate(837,393)"/>
<path d="M0 0 C2.0625 0.4375 2.0625 0.4375 4 1 C3.67 1.66 3.34 2.32 3 3 C4.98 3 6.96 3 9 3 C8.67 3.99 8.34 4.98 8 6 C8.87914688 8.6569191 8.87914688 8.6569191 10 11 C4.25 11.125 4.25 11.125 2 10 C0.32345271 10.27942455 -1.34608154 10.60828247 -3 11 C-2.01 10.01 -1.02 9.02 0 8 C-0.99 8 -1.98 8 -3 8 C-3.33 7.34 -3.66 6.68 -4 6 C-1.68421053 1.68421053 -1.68421053 1.68421053 0 0 Z " fill="#3E4751" transform="translate(1076,531)"/>
<path d="M0 0 C4.72899388 3.86917681 9.11269322 8.00302036 13.4375 12.3125 C13.98180664 12.85229492 14.52611328 13.39208984 15.08691406 13.94824219 C19 17.87627307 19 17.87627307 19 19 C16.6875 19.1875 16.6875 19.1875 14 19 C11.19147866 16.5471753 8.89754144 13.56583046 6.5 10.71875 C6.005 10.1515625 5.51 9.584375 5 9 C4.51917969 8.43667969 4.03835938 7.87335937 3.54296875 7.29296875 C0.97464629 5.14077955 -1.79983069 5.81885834 -5 6 C-3.625 4.5 -3.625 4.5 -2 3 C-1.34 3 -0.68 3 0 3 C0 2.01 0 1.02 0 0 Z " fill="#F0DADC" transform="translate(515,572)"/>
<path d="M0 0 C0.66 0.33 1.32 0.66 2 1 C-0.0404027 3.83424546 -2.082559 6.66722313 -4.125 9.5 C-4.69476562 10.29148437 -5.26453125 11.08296875 -5.8515625 11.8984375 C-9.51296363 16.97447089 -13.22494017 22.00790082 -17 27 C-18.9375 26.1875 -18.9375 26.1875 -21 25 C-21.33 24.01 -21.66 23.02 -22 22 C-21.01 22 -20.02 22 -19 22 C-19 22.99 -19 23.98 -19 25 C-16.48811576 23.74405788 -16.2709532 22.7692029 -15.125 20.25 C-13.44914784 16.77323209 -11.66161504 13.83905604 -9 11 C-8.34 11 -7.68 11 -7 11 C-6.773125 10.113125 -6.54625 9.22625 -6.3125 8.3125 C-4.82811487 4.56619468 -2.97596515 2.66270566 0 0 Z " fill="#9F4D4E" transform="translate(818,422)"/>
<path d="M0 0 C4.68162278 7.02243417 4.2832615 14.85523238 4.1875 23 C4.18685547 24.0415625 4.18621094 25.083125 4.18554688 26.15625 C4.13428909 35.17761995 3.98153243 42.28665946 -1 50 C-2.34929265 47.30141469 -1.48064551 45.78167313 -0.66430664 42.99926758 C3.15869758 29.90179471 3.26894718 17.61728355 -0.44140625 4.44140625 C-1 2 -1 2 0 0 Z " fill="#F6D4D5" transform="translate(854,324)"/>
<path d="M0 0 C0.33 0.66 0.66 1.32 1 2 C1.66 2.33 2.32 2.66 3 3 C2.030625 3.70125 1.06125 4.4025 0.0625 5.125 C-3.23690592 7.82590903 -3.36356755 9.81772961 -4 14 C-5.65948148 15.01187895 -7.32580562 16.0126546 -9 17 C-9.41780879 19.62694422 -9.41780879 19.62694422 -9 22 C-12 23 -12 23 -15 23 C-13.41128179 18.10145219 -10.56558426 14.43076005 -7.5 10.375 C-6.50995522 9.04982379 -5.5203549 7.72431538 -4.53125 6.3984375 C-4.09361328 5.81755371 -3.65597656 5.23666992 -3.20507812 4.63818359 C-2.09149134 3.12437335 -1.04243753 1.56365629 0 0 Z " fill="#F9EAE3" transform="translate(840,393)"/>
<path d="M0 0 C0.33 0.66 0.66 1.32 1 2 C0.01 3.485 0.01 3.485 -1 5 C-1.99 5 -2.98 5 -4 5 C-4 5.99 -4 6.98 -4 8 C-5.64488294 9.68816933 -7.31337542 11.35353315 -9 13 C-9.4640625 14.11375 -9.4640625 14.11375 -9.9375 15.25 C-10.288125 15.8275 -10.63875 16.405 -11 17 C-14.125 17.75 -14.125 17.75 -17 18 C-13.7986606 9.9966515 -7.27505002 4.36503001 0 0 Z " fill="#A04947" transform="translate(769,300)"/>
<path d="M0 0 C1.29608947 0.93137592 2.58671632 1.8703566 3.875 2.8125 C4.95394531 3.59560547 4.95394531 3.59560547 6.0546875 4.39453125 C8 6 8 6 10 9 C8.68 9 7.36 9 6 9 C5.34 8.34 4.68 7.68 4 7 C2.35 7.66 0.7 8.32 -1 9 C-1 8.34 -1 7.68 -1 7 C-3.31 7.33 -5.62 7.66 -8 8 C-8.33 7.34 -8.66 6.68 -9 6 C-8.43410156 5.65066406 -7.86820313 5.30132813 -7.28515625 4.94140625 C-6.55167969 4.48636719 -5.81820312 4.03132812 -5.0625 3.5625 C-4.33160156 3.11003906 -3.60070313 2.65757812 -2.84765625 2.19140625 C-1.06100191 1.13135967 -1.06100191 1.13135967 0 0 Z " fill="#51565C" transform="translate(1028,573)"/>
<path d="M0 0 C1.25733598 3.77200794 1.03366148 6.25297715 0 10 C-1.43640171 10.19573608 -2.87419504 10.38127816 -4.3125 10.5625 C-5.11300781 10.66691406 -5.91351562 10.77132812 -6.73828125 10.87890625 C-10.28760025 11.06893887 -12.92205941 9.59203823 -16 8 C-14.98679687 7.80083984 -14.98679687 7.80083984 -13.953125 7.59765625 C-12.61507812 7.33275391 -12.61507812 7.33275391 -11.25 7.0625 C-10.36828125 6.88847656 -9.4865625 6.71445312 -8.578125 6.53515625 C-7.30195312 6.27025391 -7.30195312 6.27025391 -6 6 C-5.2575 5.8659375 -4.515 5.731875 -3.75 5.59375 C-3.1725 5.3978125 -2.595 5.201875 -2 5 C-0.70339566 2.50965614 -0.70339566 2.50965614 0 0 Z M2 4 C2.66 4 3.32 4 4 4 C3.67 4.66 3.34 5.32 3 6 C2.67 5.34 2.34 4.68 2 4 Z " fill="#535660" transform="translate(610,571)"/>
<path d="M0 0 C1.32 0 2.64 0 4 0 C4 0.66 4 1.32 4 2 C4.66 2 5.32 2 6 2 C6.33 3.98 6.66 5.96 7 8 C4.36 8.66 1.72 9.32 -1 10 C-1 9.34 -1 8.68 -1 8 C-1.99 8 -2.98 8 -4 8 C-4.33 7.01 -4.66 6.02 -5 5 C-4.34 5 -3.68 5 -3 5 C-2.67 4.01 -2.34 3.02 -2 2 C-1.01 2.66 -0.02 3.32 1 4 C1 3.34 1 2.68 1 2 C0.34 1.67 -0.32 1.34 -1 1 C-0.67 0.67 -0.34 0.34 0 0 Z " fill="#3F4852" transform="translate(744,559)"/>
<path d="M0 0 C8.36628849 7.05024311 8.36628849 7.05024311 11 10 C11 10.66 11 11.32 11 12 C12.32 12.66 13.64 13.32 15 14 C15 14.33 15 14.66 15 15 C12.625 15.1875 12.625 15.1875 10 15 C9.34 14.01 8.68 13.02 8 12 C7.360625 11.87625 6.72125 11.7525 6.0625 11.625 C4 11 4 11 2.3125 8.8125 C0.92347372 5.83601512 0.37795532 3.25041578 0 0 Z " fill="#A14447" transform="translate(520,554)"/>
<path d="M0 0 C0.474375 0.4125 0.94875 0.825 1.4375 1.25 C-0.5425 0.92 -2.5225 0.59 -4.5625 0.25 C-4.5625 -0.41 -4.5625 -1.07 -4.5625 -1.75 C-5.490625 -1.70875 -6.41875 -1.6675 -7.375 -1.625 C-10.5625 -1.75 -10.5625 -1.75 -13.5625 -3.75 C-18.33595985 -4.2157034 -22.67443881 -3.1753047 -27.29296875 -2.08984375 C-29.5625 -1.75 -29.5625 -1.75 -32.5625 -2.75 C-24.5471863 -10.7653137 -8.08920807 -5.52433722 0 0 Z " fill="#F8DCDA" transform="translate(819.5625,318.75)"/>
<path d="M0 0 C0.66 0 1.32 0 2 0 C2.66 1.98 3.32 3.96 4 6 C3.34 6 2.68 6 2 6 C1.67 16.56 1.34 27.12 1 38 C0.67 38 0.34 38 0 38 C0 27.77 0 17.54 0 7 C-2.64 7 -5.28 7 -8 7 C-4.93882432 4.37613513 -4.26826873 4 0 4 C0 2.68 0 1.36 0 0 Z " fill="#3F444C" transform="translate(1108,535)"/>
<path d="M0 0 C4.82034199 2.23801592 7.67318366 4.20094131 10 9 C10.680625 9.639375 11.36125 10.27875 12.0625 10.9375 C14.30952854 13.32949813 14.48617639 14.83142106 15 18 C15.66 18.33 16.32 18.66 17 19 C16.67 19.99 16.34 20.98 16 22 C12.06206925 18.42686569 9.2683066 14.25194275 6.3125 9.875 C5.81427734 9.14667969 5.31605469 8.41835938 4.80273438 7.66796875 C1.16003667 2.32007334 1.16003667 2.32007334 0 0 Z " fill="#A24D4F" transform="translate(780,422)"/>
<path d="M0 0 C0.66 0.33 1.32 0.66 2 1 C1.38722388 3.96175123 0.74627478 5.38058783 -1 8 C-1.66 8 -2.32 8 -3 8 C-3 9.32 -3 10.64 -3 12 C-4.32 11.67 -5.64 11.34 -7 11 C-7.33 9.02 -7.66 7.04 -8 5 C-7.38125 4.71125 -6.7625 4.4225 -6.125 4.125 C-3.86674235 3.06279958 -3.86674235 3.06279958 -2 1 C-1.34 0.67 -0.68 0.34 0 0 Z " fill="#404652" transform="translate(1033,543)"/>
<path d="M0 0 C1.65 1.65 3.3 3.3 5 5 C4.01 5.66 3.02 6.32 2 7 C2 6.34 2 5.68 2 5 C1.34 5 0.68 5 0 5 C-0.33 6.65 -0.66 8.3 -1 10 C-1.33 9.34 -1.66 8.68 -2 8 C-4.475 9.485 -4.475 9.485 -7 11 C-7.66 10.34 -8.32 9.68 -9 9 C-6.03 6.03 -3.06 3.06 0 0 Z " fill="#A3504F" transform="translate(515,549)"/>
<path d="M0 0 C1.98 0 3.96 0 6 0 C6.33 1.32 6.66 2.64 7 4 C5.68 3.67 4.36 3.34 3 3 C3 3.66 3 4.32 3 5 C3.66 5 4.32 5 5 5 C4.67 6.65 4.34 8.3 4 10 C3.34 9.67 2.68 9.34 2 9 C2 8.34 2 7.68 2 7 C-2.29 6.34 -6.58 5.68 -11 5 C-11 4.67 -11 4.34 -11 4 C-10.28972656 3.87882813 -9.57945312 3.75765625 -8.84765625 3.6328125 C-7.92855469 3.46523438 -7.00945313 3.29765625 -6.0625 3.125 C-5.14597656 2.96257813 -4.22945312 2.80015625 -3.28515625 2.6328125 C-2.53105469 2.42398438 -1.77695312 2.21515625 -1 2 C-0.67 1.34 -0.34 0.68 0 0 Z " fill="#525A63" transform="translate(678,535)"/>
<path d="M0 0 C0.66 0 1.32 0 2 0 C2.05896868 3.14575207 2.09391603 6.2913586 2.125 9.4375 C2.14175781 10.31599609 2.15851562 11.19449219 2.17578125 12.09960938 C2.21967784 18.04759738 1.48881322 23.2381756 0 29 C-0.66 29 -1.32 29 -2 29 C-1.835 28.19691406 -1.67 27.39382813 -1.5 26.56640625 C-0.90396516 22.31500148 -0.92971732 18.22122906 -1 13.9375 C-1.15437208 4.48221033 -1.15437208 4.48221033 0 0 Z " fill="#9A4B49" transform="translate(835,333)"/>
<path d="M0 0 C1.32 0.66 2.64 1.32 4 2 C2.92463883 3.92115085 1.83936088 5.83675274 0.75 7.75 C-0.15492188 9.35101563 -0.15492188 9.35101563 -1.078125 10.984375 C-2.83677058 13.74387579 -4.59257448 15.80562099 -7 18 C-5.87181458 11.41891839 -3.01127603 5.89099145 0 0 Z " fill="#9B4D4D" transform="translate(846,376)"/>
<path d="M0 0 C4.00508702 2.9752075 7.0875615 5.97398207 10 10 C9.67 10.99 9.34 11.98 9 13 C5.90370066 11.24264092 3.5010319 9.5010319 1 7 C0.13375 6.484375 -0.7325 5.96875 -1.625 5.4375 C-4 4 -4 4 -5 2 C-3 3 -1 4 1 5 C1 4.34 1 3.68 1 3 C0.34 2.67 -0.32 2.34 -1 2 C-0.67 1.34 -0.34 0.68 0 0 Z " fill="#51555F" transform="translate(878,273)"/>
<path d="M0 0 C0.33 0.66 0.66 1.32 1 2 C-1.94017526 8.23317155 -5.30805531 12.06172904 -11.5 15.3125 C-14.41835391 16.11504732 -16.98722802 16.14012893 -20 16 C-17.39891366 14.26594244 -15.09401083 13.16961028 -12.25 11.9375 C-6.54264021 9.15913717 -3.4390375 5.2268815 0 0 Z " fill="#A05351" transform="translate(830,366)"/>
<path d="M0 0 C0.33 0 0.66 0 1 0 C0.98952637 0.59425781 0.97905273 1.18851562 0.96826172 1.80078125 C0.92628869 4.53380989 0.9005442 7.26677037 0.875 10 C0.85824219 10.93457031 0.84148438 11.86914062 0.82421875 12.83203125 C0.78393855 18.59209963 1.34583345 23.4774282 3 29 C2.34 29 1.68 29 1 29 C1 28.34 1 27.68 1 27 C0.34 27 -0.32 27 -1 27 C-1.79953619 23.54384068 -2.0843872 20.4929166 -1.9140625 16.953125 C-1.87023437 16.02628906 -1.82640625 15.09945313 -1.78125 14.14453125 C-1.7296875 13.18933594 -1.678125 12.23414063 -1.625 11.25 C-1.58117187 10.27933594 -1.53734375 9.30867188 -1.4921875 8.30859375 C-1.13078746 1.13078746 -1.13078746 1.13078746 0 0 Z " fill="#A34E50" transform="translate(765,335)"/>
<path d="M0 0 C0.66 0 1.32 0 2 0 C1.8570752 0.59280762 1.71415039 1.18561523 1.56689453 1.79638672 C0.11134006 8.32667783 -0.24685613 14.45103325 -0.125 21.125 C-0.11146484 22.55972656 -0.11146484 22.55972656 -0.09765625 24.0234375 C-0.07439827 26.34923525 -0.04172213 28.67447294 0 31 C-3.21898714 27.78101286 -2.59457732 23.83069481 -2.8125 19.4375 C-2.87630859 18.56802734 -2.94011719 17.69855469 -3.00585938 16.80273438 C-3.33434152 10.5985857 -2.37302895 5.73460145 0 0 Z " fill="#FCE2E0" transform="translate(744,329)"/>
<path d="M0 0 C2.1875 -0.3125 2.1875 -0.3125 5 0 C7.5 2.25 7.5 2.25 10 5 C11.3921875 6.0209375 11.3921875 6.0209375 12.8125 7.0625 C13.534375 7.701875 14.25625 8.34125 15 9 C15 10.32 15 11.64 15 13 C15.99 13.33 16.98 13.66 18 14 C17.34 15.32 16.68 16.64 16 18 C15.67386719 17.45730469 15.34773437 16.91460937 15.01171875 16.35546875 C14.35623047 15.28232422 14.35623047 15.28232422 13.6875 14.1875 C13.25824219 13.47980469 12.82898438 12.77210938 12.38671875 12.04296875 C11.07499292 9.96597433 11.07499292 9.96597433 9.33203125 8.36328125 C8 7 8 7 8 5 C6.8553125 4.5978125 6.8553125 4.5978125 5.6875 4.1875 C3.12619116 3.05575888 1.80307062 2.08776599 0 0 Z " fill="#9F4D4F" transform="translate(816,316)"/>
<path d="M0 0 C8.21705803 -0.98604696 14.75625103 2.58160161 22 6 C21.34 6.66 20.68 7.32 20 8 C16.875 7.625 16.875 7.625 14 7 C14 6.01 14 5.02 14 4 C13.175 4.061875 12.35 4.12375 11.5 4.1875 C7.11806304 3.95275338 4.04504918 2.67381346 0 1 C0 0.67 0 0.34 0 0 Z " fill="#9C4948" transform="translate(808,293)"/>
<path d="M0 0 C1.32 0 2.64 0 4 0 C4.8125 1.625 4.8125 1.625 5 4 C3.53181864 6.24609835 1.84147142 8.02378677 0 10 C-0.99 9.67 -1.98 9.34 -3 9 C-2.67 6.69 -2.34 4.38 -2 2 C-1.34 2 -0.68 2 0 2 C0 1.34 0 0.68 0 0 Z " fill="#4A4C56" transform="translate(545,564)"/>
<path d="M0 0 C5.31427203 2.70923672 8.42148591 5.22864787 12 10 C9.08517222 10.80967438 7.53886783 11.21845993 4.6875 10.0625 C4.130625 9.711875 3.57375 9.36125 3 9 C3.33 8.34 3.66 7.68 4 7 C3.01 5.824375 3.01 5.824375 2 4.625 C0 2 0 2 0 0 Z " fill="#A34544" transform="translate(830,300)"/>
<path d="M0 0 C0.66 0.66 1.32 1.32 2 2 C1.67 2.66 1.34 3.32 1 4 C1.020625 5.093125 1.04125 6.18625 1.0625 7.3125 C1.00289778 10.82903119 0.51298225 12.87947411 -1 16 C-1.33 15.34 -1.66 14.68 -2 14 C-2.99 14 -3.98 14 -5 14 C-3.45730076 9.27934033 -1.92205381 4.58335908 0 0 Z " fill="#4E525B" transform="translate(870,532)"/>
<path d="M0 0 C9.59453303 0.59453303 9.59453303 0.59453303 13 4 C12.67 4.66 12.34 5.32 12 6 C10.3743193 5.69106068 8.74947252 5.3777305 7.125 5.0625 C6.22007812 4.88847656 5.31515625 4.71445312 4.3828125 4.53515625 C2 4 2 4 0 3 C0 2.01 0 1.02 0 0 Z " fill="#50545C" transform="translate(513,498)"/>
<path d="M0 0 C1.73554378 2.60331567 2.57382626 4.39807286 3.5 7.3125 C3.75394531 8.10140625 4.00789062 8.8903125 4.26953125 9.703125 C4.51058594 10.46109375 4.75164063 11.2190625 5 12 C5.5878125 13.7634375 5.5878125 13.7634375 6.1875 15.5625 C6.455625 16.366875 6.72375 17.17125 7 18 C5.35 18 3.7 18 2 18 C2.04125 17.278125 2.0825 16.55625 2.125 15.8125 C2.16759154 13.01117506 2.16759154 13.01117506 1 10.6875 C-0.37479501 6.99273841 -0.13323119 3.93032017 0 0 Z " fill="#F9E1DF" transform="translate(744,362)"/>
<path d="M0 0 C2.78833208 0.24990092 5.57992304 0.40834114 8.375 0.5625 C9.11105469 0.60568359 9.84710937 0.64886719 10.60546875 0.69335938 C12.40348068 0.79843799 14.20171958 0.89962093 16 1 C16 1.33 16 1.66 16 2 C12.04284803 2.25405147 8.0845315 2.47401788 4.125 2.6875 C2.43310547 2.79674805 2.43310547 2.79674805 0.70703125 2.90820312 C-0.90751953 2.99038086 -0.90751953 2.99038086 -2.5546875 3.07421875 C-4.04718018 3.16062622 -4.04718018 3.16062622 -5.56982422 3.2487793 C-6.37178223 3.16668213 -7.17374023 3.08458496 -8 3 C-8.66 2.01 -9.32 1.02 -10 0 C-6.36226064 -1.25921747 -3.75009748 -0.62501625 0 0 Z " fill="#3D444B" transform="translate(792,251)"/>
<path d="M0 0 C1 3 1 3 0 6 C-1.6436814 7.68933922 -3.3142876 9.35259924 -5 11 C-5.9066941 12.09526581 -6.80279382 13.19939786 -7.6875 14.3125 C-8.8321875 15.6428125 -8.8321875 15.6428125 -10 17 C-10.66 17 -11.32 17 -12 17 C-12.33 17.66 -12.66 18.32 -13 19 C-13 16 -13 16 -11 14 C-10.55269531 13.58363281 -10.10539063 13.16726563 -9.64453125 12.73828125 C-5.98684019 8.87207573 -3.06373039 4.34091824 0 0 Z " fill="#EBEFF0" transform="translate(889,409)"/>
<path d="M0 0 C0.763125 0.20625 1.52625 0.4125 2.3125 0.625 C1.5625 5.375 1.5625 5.375 -0.6875 7.625 C-2.3375 5.645 -3.9875 3.665 -5.6875 1.625 C-2.6875 -0.375 -2.6875 -0.375 0 0 Z " fill="#FAEFEE" transform="translate(557.6875,584.375)"/>
<path d="M0 0 C0 0.66 0 1.32 0 2 C-2.046875 3.40234375 -2.046875 3.40234375 -4.75 4.9375 C-8.00075249 6.79575179 -11.04959258 8.69068578 -14 11 C-14 9.68 -14 8.36 -14 7 C-12.68 6.67 -11.36 6.34 -10 6 C-10 5.34 -10 4.68 -10 4 C-8.71086513 3.32845067 -7.41859796 2.66291141 -6.125 2 C-5.40570312 1.62875 -4.68640625 1.2575 -3.9453125 0.875 C-2 0 -2 0 0 0 Z " fill="#9E5658" transform="translate(787,314)"/>
<path d="M0 0 C0.66 0.99 1.32 1.98 2 3 C1.38125 3.2475 0.7625 3.495 0.125 3.75 C-2.35068687 5.20628639 -2.95125002 6.37812506 -4 9 C-4.99 9 -5.98 9 -7 9 C-8.6875 7 -8.6875 7 -10 5 C-8.02 5 -6.04 5 -4 5 C-4 4.34 -4 3.68 -4 3 C-3.01 2.67 -2.02 2.34 -1 2 C-0.67 1.34 -0.34 0.68 0 0 Z " fill="#985351" transform="translate(554,596)"/>
<path d="M0 0 C3.59905908 0.55550695 4.99909799 1.74887248 7.25 4.5625 C8.03117188 5.52349609 8.03117188 5.52349609 8.828125 6.50390625 C9.21484375 6.99761719 9.6015625 7.49132812 10 8 C5.51658163 8.36352041 5.51658163 8.36352041 3.3125 6.8125 C1.75175081 4.65717969 0.87947433 2.50311926 0 0 Z " fill="#F7E0E2" transform="translate(524,583)"/>
<path d="M0 0 C2.64 0.33 5.28 0.66 8 1 C8 2.98 8 4.96 8 7 C5.03 6.01 2.06 5.02 -1 4 C-0.34 3.34 0.32 2.68 1 2 C0.67 1.34 0.34 0.68 0 0 Z " fill="#4F575F" transform="translate(836,257)"/>
<path d="M0 0 C-0.99 0.66 -1.98 1.32 -3 2 C-3.7115625 2.7734375 -3.7115625 2.7734375 -4.4375 3.5625 C-6.30642159 5.28190787 -7.47863047 5.76362161 -10 6 C-10.99 5.34 -11.98 4.68 -13 4 C-11.59248779 3.13083113 -10.1735479 2.28014851 -8.75 1.4375 C-7.96109375 0.96183594 -7.1721875 0.48617187 -6.359375 -0.00390625 C-3.69155375 -1.13022151 -2.65498232 -1.0169313 0 0 Z " fill="#EBEEF0" transform="translate(500,514)"/>
<path d="M0 0 C-3.82941989 3.32993034 -8.37522222 5.05324525 -13 7 C-13.33 6.01 -13.66 5.02 -14 4 C-9.09075703 0.07260562 -6.26079448 -0.43177893 0 0 Z " fill="#EEF1F4" transform="translate(754,249)"/>
<path d="M0 0 C2.3125 -0.3125 2.3125 -0.3125 5 0 C6.81883009 2.3832946 8 3.95818337 8 7 C8.99 7.33 9.98 7.66 11 8 C10.67 8.99 10.34 9.98 10 11 C8.33035479 9.35718838 6.6643536 7.71067239 5 6.0625 C4.071875 5.14597656 3.14375 4.22945312 2.1875 3.28515625 C0 1 0 1 0 0 Z " fill="#964647" transform="translate(513,569)"/>
<path d="M0 0 C1.32 0.66 2.64 1.32 4 2 C4 2.66 4 3.32 4 4 C4.99 4 5.98 4 7 4 C6.67 4.99 6.34 5.98 6 7 C4.68 6.34 3.36 5.68 2 5 C-0.97 7.475 -0.97 7.475 -4 10 C-4 9.01 -4 8.02 -4 7 C-3.34 6.67 -2.68 6.34 -2 6 C-1.27306096 4.02111039 -0.60183749 2.02045442 0 0 Z " fill="#FBEBE8" transform="translate(513,545)"/>
<path d="M0 0 C2 1.375 2 1.375 4 3 C4 3.66 4 4.32 4 5 C3.38125 5.12375 2.7625 5.2475 2.125 5.375 C-0.19120832 5.87197356 -0.19120832 5.87197356 -2 8 C-2.66 6.68 -3.32 5.36 -4 4 C-2.68 2.68 -1.36 1.36 0 0 Z " fill="#4F555F" transform="translate(691,534)"/>
<path d="M0 0 C5.28 0 10.56 0 16 0 C16 3.3 16 6.6 16 10 C15.34 10 14.68 10 14 10 C12.51423365 5.98843085 13.19252122 5.51869696 15 1 C10.05 1 5.1 1 0 1 C0 0.67 0 0.34 0 0 Z " fill="#6D7379" transform="translate(1123,529)"/>
<path d="M0 0 C4.12969572 6.19454359 4.30062652 12.78496357 4 20 C3.67 20 3.34 20 3 20 C2.30415424 17.04340215 1.61801493 14.08512767 0.9375 11.125 C0.73833984 10.28324219 0.53917969 9.44148438 0.33398438 8.57421875 C0.15029297 7.76855469 -0.03339844 6.96289062 -0.22265625 6.1328125 C-0.48187866 5.01737061 -0.48187866 5.01737061 -0.74633789 3.87939453 C-1 2 -1 2 0 0 Z " fill="#FBE4E3" transform="translate(854,324)"/>
<path d="M0 0 C0.99 0.33 1.98 0.66 3 1 C3 1.66 3 2.32 3 3 C4.98 3.66 6.96 4.32 9 5 C9 5.99 9 6.98 9 8 C4.89041233 6.54955729 1.56741255 4.48889248 -2 2 C-1.34 1.34 -0.68 0.68 0 0 Z " fill="#51575D" transform="translate(476,581)"/>
<path d="M0 0 C-0.75 6.75 -0.75 6.75 -3 9 C-3.66 9.99 -4.32 10.98 -5 12 C-5 8.37 -5 4.74 -5 1 C-2 0 -2 0 0 0 Z " fill="#3E4650" transform="translate(543,537)"/>
<path d="M0 0 C2.0625 0.4375 2.0625 0.4375 4 1 C3.67 1.99 3.34 2.98 3 4 C3.66 4.33 4.32 4.66 5 5 C5 5.99 5 6.98 5 8 C1.62537285 7.45276317 -0.08235 6.9451 -3 5 C-3.33 4.34 -3.66 3.68 -4 3 C-3.01 2.34 -2.02 1.68 -1 1 C-0.67 0.67 -0.34 0.34 0 0 Z " fill="#3F4850" transform="translate(680,529)"/>
<path d="M0 0 C1.65 0 3.3 0 5 0 C5.66 2.97 6.32 5.94 7 9 C6.01 9.495 6.01 9.495 5 10 C3.35 6.7 1.7 3.4 0 0 Z " fill="#A44C48" transform="translate(750,377)"/>
<path d="M0 0 C2.475 0.495 2.475 0.495 5 1 C4.67 1.66 4.34 2.32 4 3 C5.32 3.33 6.64 3.66 8 4 C8 4.99 8 5.98 8 7 C8.99 7.33 9.98 7.66 11 8 C4.25 7.125 4.25 7.125 2 6 C1.27306096 4.02111039 0.60183749 2.02045442 0 0 Z " fill="#51575F" transform="translate(791,353)"/>
<path d="M0 0 C2.53078176 3.13334885 4.51376532 6.24530187 6 10 C5.07421875 12.1875 5.07421875 12.1875 4 14 C1.28608722 9.22642128 -0.56561146 5.65611463 0 0 Z " fill="#9C4A4C" transform="translate(848,318)"/>
<path d="M0 0 C2.375 0.25 2.375 0.25 5 1 C6.3125 3.0625 6.3125 3.0625 7 5 C6.34 5.66 5.68 6.32 5 7 C3.68 7 2.36 7 1 7 C0 4 0 4 0 0 Z " fill="#4D515D" transform="translate(753,568)"/>
<path d="M0 0 C1.32 0 2.64 0 4 0 C4 3.20395416 3.25664978 5.09399739 2 8 C0.33333333 8 -1.33333333 8 -3 8 C-2.690625 7.236875 -2.38125 6.47375 -2.0625 5.6875 C-1.32106407 3.81210323 -0.63771783 1.91315348 0 0 Z " fill="#51585E" transform="translate(1067,549)"/>
<path d="M0 0 C0.99 0 1.98 0 3 0 C4.53515625 1.828125 4.53515625 1.828125 6.0625 4.25 C6.56910156 5.03890625 7.07570313 5.8278125 7.59765625 6.640625 C8.83602955 8.72412772 9.95283004 10.8154732 11 13 C10.01 13 9.02 13 8 13 C5.95703125 10.41015625 5.95703125 10.41015625 3.8125 7.0625 C3.09707031 5.96035156 2.38164063 4.85820312 1.64453125 3.72265625 C0 1 0 1 0 0 Z " fill="#9F5254" transform="translate(758,390)"/>
<path d="M0 0 C3.63 1.65 7.26 3.3 11 5 C11 5.33 11 5.66 11 6 C7.04 5.67 3.08 5.34 -1 5 C-0.67 3.35 -0.34 1.7 0 0 Z " fill="#A2494B" transform="translate(778,376)"/>
<path d="M0 0 C0.66 0 1.32 0 2 0 C1.75828551 6.16371941 1.75828551 6.16371941 -0.3671875 8.5078125 C-1.87798332 9.71500342 -3.43742668 10.86062362 -5 12 C-5.33 12.66 -5.66 13.32 -6 14 C-6.99 13.67 -7.98 13.34 -9 13 C-4 8 -4 8 -1.6875 5.9375 C0.43785383 3.92550404 0.43785383 3.92550404 0 0 Z " fill="#F9DFDF" transform="translate(558,592)"/>
<path d="M0 0 C0.53625 0.53625 1.0725 1.0725 1.625 1.625 C-2.25184087 2.81787411 -5.29121923 3.625 -9.375 3.625 C-9.045 2.635 -8.715 1.645 -8.375 0.625 C-3.24904162 -1.8810241 -3.24904162 -1.8810241 0 0 Z " fill="#52555F" transform="translate(523.375,588.375)"/>
<path d="M0 0 C0.66 0 1.32 0 2 0 C2.33 0.99 2.66 1.98 3 3 C4.98075027 4.36176581 6.98079663 5.69593116 9 7 C9.33 7.66 9.66 8.32 10 9 C5.94718288 7.77472971 2.55639236 6.30119506 -1 4 C-0.67 2.68 -0.34 1.36 0 0 Z " fill="#54595E" transform="translate(791,583)"/>
<path d="M0 0 C3.04261908 0.3259949 3.9801219 0.97895261 6.125 3.25 C7.8640616 5.80062367 9.00276322 8.09139271 10 11 C9.01 11.495 9.01 11.495 8 12 C6.66382103 10.18959679 5.33112616 8.3766216 4 6.5625 C3.2575 5.55316406 2.515 4.54382813 1.75 3.50390625 C0 1 0 1 0 0 Z " fill="#A5504F" transform="translate(768,405)"/>
<path d="M0 0 C0.66 0.33 1.32 0.66 2 1 C2 2.65 2 4.3 2 6 C1.34 6 0.68 6 0 6 C-0.33 6.66 -0.66 7.32 -1 8 C-1 7.34 -1 6.68 -1 6 C-2.32 6.99 -3.64 7.98 -5 9 C-5 4.61031544 -2.87194899 3.23094261 0 0 Z " fill="#51565F" transform="translate(719,275)"/>
<path d="M0 0 C0.5775 0.78375 1.155 1.5675 1.75 2.375 C3.73682561 5.06479539 3.73682561 5.06479539 6.1875 6 C7.0846875 6.495 7.0846875 6.495 8 7 C8.75 9.625 8.75 9.625 9 12 C4.86378916 8.6189962 1.18683431 5.33409466 -2 1 C-1.34 0.67 -0.68 0.34 0 0 Z " fill="#954145" transform="translate(526,579)"/>
<path d="M0 0 C2.31 0.33 4.62 0.66 7 1 C7.625 3.375 7.625 3.375 8 6 C7.34 6.66 6.68 7.32 6 8 C4.9970458 6.85675161 3.99770973 5.71032809 3 4.5625 C2.443125 3.92441406 1.88625 3.28632812 1.3125 2.62890625 C0 1 0 1 0 0 Z " fill="#FAE9EC" transform="translate(542,575)"/>
<path d="M0 0 C3.87915244 0.57468925 6.14756605 2.37884447 9 5 C9.33 5.99 9.66 6.98 10 8 C9.01 8.33 8.02 8.66 7 9 C7 8.34 7 7.68 7 7 C6.34 7 5.68 7 5 7 C5 6.01 5 5.02 5 4 C4.34 4 3.68 4 3 4 C3 3.34 3 2.68 3 2 C2.01 1.67 1.02 1.34 0 1 C0 0.67 0 0.34 0 0 Z " fill="#EAECEF" transform="translate(1014,540)"/>
<path d="M0 0 C0.99 0 1.98 0 3 0 C3 0.66 3 1.32 3 2 C2.01 2 1.02 2 0 2 C0 1.34 0 0.68 0 0 Z M-3 1 C-2.01 1.33 -1.02 1.66 0 2 C-0.33 3.32 -0.66 4.64 -1 6 C-3.375 6.625 -3.375 6.625 -6 7 C-6.66 6.34 -7.32 5.68 -8 5 C-5.6875 2.9375 -5.6875 2.9375 -3 1 Z " fill="#F3F7F8" transform="translate(877,426)"/>
<path d="M0 0 C0.99 0.66 1.98 1.32 3 2 C3 3.32 3 4.64 3 6 C2.01 6.33 1.02 6.66 0 7 C-0.33 7.99 -0.66 8.98 -1 10 C-1.99 10.33 -2.98 10.66 -4 11 C-3.52269162 9.5410574 -3.04308958 8.08286504 -2.5625 6.625 C-2.29566406 5.81289063 -2.02882813 5.00078125 -1.75390625 4.1640625 C-1 2 -1 2 0 0 Z " fill="#555B63" transform="translate(860,557)"/>
<path d="M0 0 C2.9156164 3.54039134 5.50127818 7.1626772 8 11 C7.01 11 6.02 11 5 11 C4.731875 10.195625 4.46375 9.39125 4.1875 8.5625 C3.795625 7.716875 3.40375 6.87125 3 6 C2.01 5.67 1.02 5.34 0 5 C-0.75 3 -0.75 3 -1 1 C-0.67 0.67 -0.34 0.34 0 0 Z " fill="#FAE8E6" transform="translate(791,438)"/>
<path d="M0 0 C0.66 0.33 1.32 0.66 2 1 C0.6062718 5.43458973 -1.60582235 7.87378374 -5 11 C-5 9.68 -5 8.36 -5 7 C-4.34 7 -3.68 7 -3 7 C-2.67 5.35 -2.34 3.7 -2 2 C-1.34 2 -0.68 2 0 2 C0 1.34 0 0.68 0 0 Z " fill="#9C5350" transform="translate(837,393)"/>
<path d="M0 0 C-0.80814651 1.33597652 -1.62163181 2.668725 -2.4375 4 C-2.88996094 4.7425 -3.34242188 5.485 -3.80859375 6.25 C-4.20175781 6.8275 -4.59492187 7.405 -5 8 C-5.33 8 -5.66 8 -6 8 C-6 5.36 -6 2.72 -6 0 C-3.50907189 -1.24546405 -2.58919267 -0.7767578 0 0 Z " fill="#9D4A4C" transform="translate(773,326)"/>
<path d="M0 0 C0.33 0 0.66 0 1 0 C1.33 3.3 1.66 6.6 2 10 C0.35 10 -1.3 10 -3 10 C-2.01 6.7 -1.02 3.4 0 0 Z " fill="#525760" transform="translate(700,304)"/>
<path d="M0 0 C1.65 0.33 3.3 0.66 5 1 C3.60667426 4.36720387 2.0210714 5.9859524 -1 8 C-2.2077558 4.37673261 -1.54311128 3.35853631 0 0 Z " fill="#41484F" transform="translate(730,277)"/>
<path d="M0 0 C0.99 0.33 1.98 0.66 3 1 C3 1.66 3 2.32 3 3 C2.071875 3.4125 1.14375 3.825 0.1875 4.25 C-2.88054681 5.93441786 -4.19040465 7.08454083 -6 10 C-6.66 9.67 -7.32 9.34 -8 9 C-6.85459775 7.68712379 -5.70866567 6.37470979 -4.5625 5.0625 C-3.92441406 4.33160156 -3.28632812 3.60070312 -2.62890625 2.84765625 C-1.77458541 1.87860647 -0.91348825 0.91348825 0 0 Z " fill="#F6DEDE" transform="translate(778,320)"/>
<path d="M0 0 C1.45742463 -0.08096803 2.91612807 -0.13917774 4.375 -0.1875 C5.18710937 -0.22230469 5.99921875 -0.25710938 6.8359375 -0.29296875 C7.55007813 -0.19628906 8.26421875 -0.09960938 9 0 C9.66 0.99 10.32 1.98 11 3 C7.44706507 4.14947895 6.20023331 4.0868937 2.6875 2.5625 C1.800625 2.046875 0.91375 1.53125 0 1 C0 0.67 0 0.34 0 0 Z " fill="#52535C" transform="translate(990,587)"/>
<path d="M0 0 C1.31896465 0.92838287 2.62998689 1.86805732 3.9375 2.8125 C4.66839844 3.33457031 5.39929688 3.85664062 6.15234375 4.39453125 C8 6 8 6 9 9 C7.68 9 6.36 9 5 9 C4.67 7.68 4.34 6.36 4 5 C3.34 5 2.68 5 2 5 C2 4.34 2 3.68 2 3 C1.34 3 0.68 3 0 3 C0 2.01 0 1.02 0 0 Z " fill="#9D494F" transform="translate(536,571)"/>
<path d="M0 0 C0.66 0 1.32 0 2 0 C2.33 0.66 2.66 1.32 3 2 C3.99 2 4.98 2 6 2 C5.67 3.98 5.34 5.96 5 8 C0.125 4.375 0.125 4.375 -1 1 C-0.67 0.67 -0.34 0.34 0 0 Z " fill="#F0F2F4" transform="translate(753,561)"/>
<path d="M0 0 C0.33 0 0.66 0 1 0 C0.9129995 1.62600941 0.8048219 3.25089678 0.6875 4.875 C0.62949219 5.77992188 0.57148438 6.68484375 0.51171875 7.6171875 C0 10 0 10 -3 12 C-2.14285714 3.42857143 -2.14285714 3.42857143 0 0 Z " fill="#585F66" transform="translate(461,524)"/>
<path d="M0 0 C0.99 0.33 1.98 0.66 3 1 C3 4 3 4 1 7 C1 6.34 1 5.68 1 5 C0.01 5.33 -0.98 5.66 -2 6 C-2 4.35 -2 2.7 -2 1 C-1.34 0.67 -0.68 0.34 0 0 Z " fill="#92969A" transform="translate(829,437)"/>
<path d="M0 0 C-0.33 3.63 -0.66 7.26 -1 11 C-1.66 10.67 -2.32 10.34 -3 10 C-2.67 7.36 -2.34 4.72 -2 2 C-3.98 2 -5.96 2 -8 2 C-5 0 -5 0 0 0 Z " fill="#5C6268" transform="translate(685,562)"/>
<path d="M0 0 C2.97 0.33 5.94 0.66 9 1 C8.67 1.99 8.34 2.98 8 4 C5.125 3.6875 5.125 3.6875 2 3 C1.34 2.01 0.68 1.02 0 0 Z " fill="#565962" transform="translate(814,528)"/>
<path d="M0 0 C0.90105469 0.01804687 1.80210937 0.03609375 2.73046875 0.0546875 C3.41753906 0.07789063 4.10460937 0.10109375 4.8125 0.125 C3.5625 1.625 3.5625 1.625 1.8125 3.125 C0.4925 3.125 -0.8275 3.125 -2.1875 3.125 C-2.1875 2.465 -2.1875 1.805 -2.1875 1.125 C-4.1675 1.455 -6.1475 1.785 -8.1875 2.125 C-4.87379 -0.08414 -3.8428979 -0.09981553 0 0 Z " fill="#5D6167" transform="translate(498.1875,497.875)"/>
<path d="M0 0 C1.50433594 0.01353516 1.50433594 0.01353516 3.0390625 0.02734375 C3.80992187 0.03894531 4.58078125 0.05054688 5.375 0.0625 C2.87994038 2.55755962 1.70171112 2.42198376 -1.75 2.6875 C-2.66007813 2.76226562 -3.57015625 2.83703125 -4.5078125 2.9140625 C-5.55582031 2.98753906 -5.55582031 2.98753906 -6.625 3.0625 C-6.955 2.4025 -7.285 1.7425 -7.625 1.0625 C-4.98041621 -0.25979189 -2.94738699 -0.03427194 0 0 Z " fill="#FBE9E5" transform="translate(794.625,313.9375)"/>
<path d="M0 0 C-0.99 0.33 -1.98 0.66 -3 1 C-2.67 2.32 -2.34 3.64 -2 5 C-3.65 4.67 -5.3 4.34 -7 4 C-6.67 3.01 -6.34 2.02 -6 1 C-6.99 0.67 -7.98 0.34 -9 0 C-5.62182575 -0.84454356 -3.32534757 -1.10844919 0 0 Z " fill="#51545B" transform="translate(787,241)"/>
<path d="M0 0 C1.98 0.495 1.98 0.495 4 1 C4.33 2.65 4.66 4.3 5 6 C4.01 6.33 3.02 6.66 2 7 C1.01 6.34 0.02 5.68 -1 5 C-0.67 3.35 -0.34 1.7 0 0 Z " fill="#434650" transform="translate(761,577)"/>
<path d="M0 0 C0.99 0 1.98 0 3 0 C2.67 0.99 2.34 1.98 2 3 C2.33 3.99 2.66 4.98 3 6 C1.68 6.99 0.36 7.98 -1 9 C-1.125 2.25 -1.125 2.25 0 0 Z " fill="#F6F8FB" transform="translate(731,545)"/>
<path d="M0 0 C-3.96 1.98 -3.96 1.98 -8 4 C-8.33 2.68 -8.66 1.36 -9 0 C-4.5 -2.25 -4.5 -2.25 0 0 Z " fill="#555A61" transform="translate(494,515)"/>
<path d="M0 0 C1.65 0 3.3 0 5 0 C5.33 0.66 5.66 1.32 6 2 C5.0625 4.125 5.0625 4.125 4 6 C3.34 6 2.68 6 2 6 C2 5.01 2 4.02 2 3 C1.01 2.67 0.02 2.34 -1 2 C-0.67 1.34 -0.34 0.68 0 0 Z " fill="#A4403F" transform="translate(797,441)"/>
<path d="M0 0 C0.99 0 1.98 0 3 0 C2.67 1.65 2.34 3.3 2 5 C1.34 5 0.68 5 0 5 C0 6.98 0 8.96 0 11 C-0.99 11.495 -0.99 11.495 -2 12 C-1 3.42857143 -1 3.42857143 0 0 Z " fill="#A64444" transform="translate(825,405)"/>
<path d="M0 0 C6.27 0.33 12.54 0.66 19 1 C19 1.33 19 1.66 19 2 C16.20882755 2.24803781 13.41884926 2.47414334 10.625 2.6875 C9.43390625 2.79674805 9.43390625 2.79674805 8.21875 2.90820312 C5.9140625 3.07421875 5.9140625 3.07421875 2 3 C1.34 2.01 0.68 1.02 0 0 Z " fill="#974444" transform="translate(789,382)"/>
<path d="M0 0 C1.32 0.66 2.64 1.32 4 2 C3.1875 3.9375 3.1875 3.9375 2 6 C1.01 6.33 0.02 6.66 -1 7 C-1.625 5.1875 -1.625 5.1875 -2 3 C-1.34 2.01 -0.68 1.02 0 0 Z " fill="#A04341" transform="translate(846,376)"/>
<path d="M0 0 C0.66 0 1.32 0 2 0 C2.33 1.32 2.66 2.64 3 4 C2.01 4.33 1.02 4.66 0 5 C-1.68538601 6.99665314 -1.68538601 6.99665314 -3 9 C-2.5020163 5.26512223 -2.12508244 3.18762365 0 0 Z " fill="#F3D9D5" transform="translate(769,331)"/>
<path d="M0 0 C5.75 1.875 5.75 1.875 8 3 C8 3.66 8 4.32 8 5 C8.66 5.33 9.32 5.66 10 6 C9.34 6.66 8.68 7.32 8 8 C6.66372225 6.85760183 5.33104612 5.71098945 4 4.5625 C3.2575 3.92441406 2.515 3.28632813 1.75 2.62890625 C1.1725 2.09136719 0.595 1.55382812 0 1 C0 0.67 0 0.34 0 0 Z " fill="#F7E1E3" transform="translate(834,302)"/>
<path d="M0 0 C1.98 0.495 1.98 0.495 4 1 C4.33 2.98 4.66 4.96 5 7 C3 6 1 5 -1 4 C-0.67 2.68 -0.34 1.36 0 0 Z " fill="#434852" transform="translate(874,271)"/>
<path d="M0 0 C1.98 1.65 3.96 3.3 6 5 C5.34 5.66 4.68 6.32 4 7 C4 6.34 4 5.68 4 5 C2.68 5.33 1.36 5.66 0 6 C-1 4 -1 4 -1 1 C-0.67 0.67 -0.34 0.34 0 0 Z " fill="#464B52" transform="translate(829,573)"/>
<path d="M0 0 C3.44216672 2.6598561 3.99504674 5.90288286 5 10 C-0.73529412 4.70588235 -0.73529412 4.70588235 -1 1 C-0.67 0.67 -0.34 0.34 0 0 Z " fill="#F9DFDD" transform="translate(769,361)"/>
<path d="M0 0 C2.05883923 4.11767846 2.96165128 7.54993405 4 12 C3.34 12 2.68 12 2 12 C2 11.34 2 10.68 2 10 C1.34 10 0.68 10 0 10 C0 6.7 0 3.4 0 0 Z " fill="#964645" transform="translate(764,352)"/>
<path d="M0 0 C3.58050131 4.17255271 3.26656798 6.66864045 3 12 C0.50494038 9.50494038 0.64051624 8.32671112 0.375 4.875 C0.30023437 3.96492188 0.22546875 3.05484375 0.1484375 2.1171875 C0.09945312 1.41851562 0.05046875 0.71984375 0 0 Z " fill="#F7DBD6" transform="translate(765,350)"/>
<path d="M0 0 C0.66 0 1.32 0 2 0 C1.67 0.99 1.34 1.98 1 3 C-3.455 3.495 -3.455 3.495 -8 4 C-7.67 3.01 -7.34 2.02 -7 1 C-5.5459375 1.0309375 -5.5459375 1.0309375 -4.0625 1.0625 C-1.12534105 1.35618499 -1.12534105 1.35618499 0 0 Z " fill="#A54648" transform="translate(779,297)"/>
<path d="M0 0 C1.875 0.25 1.875 0.25 4 1 C5.25 3.0625 5.25 3.0625 6 5 C1.25 4.125 1.25 4.125 -1 3 C-0.67 2.01 -0.34 1.02 0 0 Z " fill="#4D525A" transform="translate(481,569)"/>
<path d="M0 0 C2.31 0.66 4.62 1.32 7 2 C7 3.32 7 4.64 7 6 C3.63279613 4.60667426 2.0140476 3.0210714 0 0 Z " fill="#51565D" transform="translate(533,563)"/>
<path d="M0 0 C0.33 0.66 0.66 1.32 1 2 C1.66 2.33 2.32 2.66 3 3 C0.03 5.475 0.03 5.475 -3 8 C-3.33 7.34 -3.66 6.68 -4 6 C-2.68 4.02 -1.36 2.04 0 0 Z " fill="#FBEAE8" transform="translate(840,393)"/>
<path d="M0 0 C0.99 0.33 1.98 0.66 3 1 C3.8125 2.9375 3.8125 2.9375 4 5 C3.34 5.66 2.68 6.32 2 7 C0.68 5.35 -0.64 3.7 -2 2 C-1.34 1.34 -0.68 0.68 0 0 Z " fill="#F2F3F4" transform="translate(875,265)"/>
<path d="M0 0 C0.66 0.66 1.32 1.32 2 2 C0.02 3.32 -1.96 4.64 -4 6 C-4.66 5.34 -5.32 4.68 -6 4 C-3.94766315 1.7522025 -2.99332739 0.9977758 0 0 Z " fill="#E8ECEE" transform="translate(735,258)"/>
<path d="M0 0 C0.66 0 1.32 0 2 0 C2 0.99 2 1.98 2 3 C2.99 3.33 3.98 3.66 5 4 C5.33 4.99 5.66 5.98 6 7 C4.35 7 2.7 7 1 7 C0.67 4.69 0.34 2.38 0 0 Z " fill="#63656D" transform="translate(682,584)"/>
<path d="M0 0 C0.94875 0.350625 1.8975 0.70125 2.875 1.0625 C0.25558783 2.80877478 -1.16324877 3.44972388 -4.125 4.0625 C-4.455 2.7425 -4.785 1.4225 -5.125 0.0625 C-3.125 -0.9375 -3.125 -0.9375 0 0 Z " fill="#3B444D" transform="translate(677.125,584.9375)"/>
<path d="M0 0 C0.66 0.66 1.32 1.32 2 2 C1.67 2.66 1.34 3.32 1 4 C0.95977609 6.3329866 0.95679753 8.66706666 1 11 C-0.625 9.4375 -0.625 9.4375 -2 7 C-1.1875 3.25 -1.1875 3.25 0 0 Z " fill="#5C6069" transform="translate(870,532)"/>
<path d="M0 0 C3.96 0 7.92 0 12 0 C12 0.33 12 0.66 12 1 C8.92382812 1.29296875 8.92382812 1.29296875 5.84765625 1.5859375 C5.23792969 1.72257813 4.62820313 1.85921875 4 2 C3.67 2.66 3.34 3.32 3 4 C2.34 4 1.68 4 1 4 C0.67 2.68 0.34 1.36 0 0 Z " fill="#3D454D" transform="translate(1124,530)"/>
<path d="M0 0 C0.66 0.66 1.32 1.32 2 2 C1.875 3.9375 1.875 3.9375 1 6 C-1.0625 7.75 -1.0625 7.75 -3 9 C-2.01 6.03 -1.02 3.06 0 0 Z " fill="#5C6067" transform="translate(881,506)"/>
<path d="M0 0 C1.32 0.33 2.64 0.66 4 1 C4 2.98 4 4.96 4 7 C3.01 7 2.02 7 1 7 C0.67 4.69 0.34 2.38 0 0 Z " fill="#B83E40" transform="translate(771,401)"/>
<path d="M0 0 C0.66 0.33 1.32 0.66 2 1 C0.25 6.75 0.25 6.75 -2 9 C-2.6875 7.3125 -2.6875 7.3125 -3 5 C-1.5625 2.25 -1.5625 2.25 0 0 Z " fill="#F8E2DE" transform="translate(748,319)"/>
<path d="M0 0 C1.32 0.33 2.64 0.66 4 1 C5.375 3.375 5.375 3.375 6 6 C5.01 7.485 5.01 7.485 4 9 C2.68 6.03 1.36 3.06 0 0 Z " fill="#F8DEDE" transform="translate(848,317)"/>
<path d="M0 0 C0.33 1.32 0.66 2.64 1 4 C0.34 4 -0.32 4 -1 4 C-1 4.99 -1 5.98 -1 7 C-2.32 7.33 -3.64 7.66 -5 8 C-2.25 2.25 -2.25 2.25 0 0 Z " fill="#9D5757" transform="translate(757,310)"/>
<path d="M0 0 C2.0625 0.1875 2.0625 0.1875 4 1 C4.33 1.99 4.66 2.98 5 4 C3.02 4 1.04 4 -1 4 C-1.33 3.34 -1.66 2.68 -2 2 C-1.34 1.34 -0.68 0.68 0 0 Z " fill="#3D4850" transform="translate(491,587)"/>
<path d="M0 0 C0.33 0.99 0.66 1.98 1 3 C-1 5 -1 5 -4.125 5.125 C-5.548125 5.063125 -5.548125 5.063125 -7 5 C-6.1875 3.0625 -6.1875 3.0625 -5 1 C-2 0 -2 0 0 0 Z " fill="#3A4A55" transform="translate(521,584)"/>
<path d="M0 0 C1.485 0.99 1.485 0.99 3 2 C3 2.66 3 3.32 3 4 C4.32 4.66 5.64 5.32 7 6 C7 6.33 7 6.66 7 7 C5.35 7 3.7 7 2 7 C1.34 4.69 0.68 2.38 0 0 Z " fill="#A25758" transform="translate(528,562)"/>
<path d="M0 0 C2 3 2 3 1.8125 6.5625 C1 10 1 10 -2 12 C-1.34 8.04 -0.68 4.08 0 0 Z " fill="#5A6066" transform="translate(537,549)"/>
<path d="M0 0 C0.33 0.99 0.66 1.98 1 3 C1.99 2.67 2.98 2.34 4 2 C3.34 3.32 2.68 4.64 2 6 C2.66 6.66 3.32 7.32 4 8 C2.35 8 0.7 8 -1 8 C-0.67 5.36 -0.34 2.72 0 0 Z " fill="#41444D" transform="translate(684,547)"/>
<path d="M0 0 C0.66 0.66 1.32 1.32 2 2 C1.67 2.66 1.34 3.32 1 4 C-1.31 4 -3.62 4 -6 4 C-3.94766315 1.7522025 -2.99332739 0.9977758 0 0 Z " fill="#575C63" transform="translate(797,530)"/>
<path d="M0 0 C0.99 0.33 1.98 0.66 3 1 C2.34 2.65 1.68 4.3 1 6 C-0.32 5.67 -1.64 5.34 -3 5 C-3 3 -3 3 -1.5 1.375 C-1.005 0.92125 -0.51 0.4675 0 0 Z " fill="#7F838D" transform="translate(741,432)"/>
<path d="M0 0 C1 3 1 3 0 6 C-1.95597184 7.39712274 -3.95436401 8.73779907 -6 10 C-4.6302836 6.00499382 -2.74277578 3.19990508 0 0 Z " fill="#E5E7E9" transform="translate(889,409)"/>
<path d="M0 0 C0.66 0 1.32 0 2 0 C0.25 5.75 0.25 5.75 -2 8 C-2.66 8 -3.32 8 -4 8 C-2.87548273 5.0280615 -1.77706209 2.66559313 0 0 Z " fill="#F7E4E4" transform="translate(845,385)"/>
<path d="M0 0 C1.65 1.65 3.3 3.3 5 5 C4.67 5.66 4.34 6.32 4 7 C3.01 6.67 2.02 6.34 1 6 C0.67 4.02 0.34 2.04 0 0 Z " fill="#9F575B" transform="translate(842,310)"/>
<path d="M0 0 C1.32 0.66 2.64 1.32 4 2 C4 2.99 4 3.98 4 5 C2.0625 4.6875 2.0625 4.6875 0 4 C-0.33 3.01 -0.66 2.02 -1 1 C-0.67 0.67 -0.34 0.34 0 0 Z " fill="#434449" transform="translate(522,584)"/>
<path d="M0 0 C4.455 0.99 4.455 0.99 9 2 C9 2.66 9 3.32 9 4 C7.35 4.33 5.7 4.66 4 5 C2.68 3.35 1.36 1.7 0 0 Z " fill="#E0C9CF" transform="translate(537,571)"/>
<path d="M0 0 C1.74627478 2.61941217 2.38722388 4.03824877 3 7 C1.68 7.33 0.36 7.66 -1 8 C-1.04241723 5.66705225 -1.04092937 3.33297433 -1 1 C-0.67 0.67 -0.34 0.34 0 0 Z " fill="#565964" transform="translate(930,568)"/>
<path d="M0 0 C0.66 0 1.32 0 2 0 C2.6875 1.8125 2.6875 1.8125 3 4 C1.5625 5.75 1.5625 5.75 0 7 C-0.38133299 5.0085944 -0.71325582 3.00720923 -1 1 C-0.67 0.67 -0.34 0.34 0 0 Z " fill="#5B5E68" transform="translate(547,564)"/>
<path d="M0 0 C0.99 1.32 1.98 2.64 3 4 C1.02 4.99 1.02 4.99 -1 6 C-1.66 5.34 -2.32 4.68 -3 4 C-2.01 2.68 -1.02 1.36 0 0 Z " fill="#575B66" transform="translate(745,538)"/>
<path d="M0 0 C3.465 1.485 3.465 1.485 7 3 C6.01 3.66 5.02 4.32 4 5 C1.3125 4.125 1.3125 4.125 -1 3 C-0.67 2.01 -0.34 1.02 0 0 Z " fill="#535962" transform="translate(529,503)"/>
<path d="M0 0 C1.32 0.66 2.64 1.32 4 2 C1.69 3.65 -0.62 5.3 -3 7 C-1.125 1.125 -1.125 1.125 0 0 Z " fill="#EDF1F3" transform="translate(859,417)"/>
<path d="M0 0 C3.39417765 3.12621626 5.6062718 5.56541027 7 10 C2.78577758 7.11658466 1.23924145 4.95696581 0 0 Z " fill="#F6D9D5" transform="translate(753,384)"/>
<path d="M0 0 C0.33 0.66 0.66 1.32 1 2 C1.66 2.33 2.32 2.66 3 3 C2.01 4.485 2.01 4.485 1 6 C0.60986284 7.9896995 0.26797351 9.99019869 0 12 C-0.33 12 -0.66 12 -1 12 C-1.14285714 3.42857143 -1.14285714 3.42857143 0 0 Z " fill="#D1D4DA" transform="translate(707,330)"/>
<path d="M0 0 C0.66 0.33 1.32 0.66 2 1 C-0.97 3.475 -0.97 3.475 -4 6 C-4 4.68 -4 3.36 -4 2 C-2.125 0.9375 -2.125 0.9375 0 0 Z " fill="#9F4C50" transform="translate(777,319)"/>
<path d="M0 0 C1.32 0.66 2.64 1.32 4 2 C2.02 4.97 2.02 4.97 0 8 C-1.09658936 4.71023192 -0.79953138 3.28696233 0 0 Z " fill="#50575F" transform="translate(722,288)"/>
<path d="M0 0 C0.33 0.99 0.66 1.98 1 3 C0.01 4.485 0.01 4.485 -1 6 C-2.32 5.34 -3.64 4.68 -5 4 C-3.35 2.68 -1.7 1.36 0 0 Z " fill="#5A5F68" transform="translate(733,262)"/>
<path d="M0 0 C0.66 0.33 1.32 0.66 2 1 C2.33 1.99 2.66 2.98 3 4 C2.01 4.66 1.02 5.32 0 6 C-0.66 4.68 -1.32 3.36 -2 2 C-1.34 1.34 -0.68 0.68 0 0 Z " fill="#40454F" transform="translate(740,546)"/>
<path d="M0 0 C0 0.66 0 1.32 0 2 C-2.53563658 4.26396123 -4.65750371 5.40312566 -8 6 C-3.38461538 0 -3.38461538 0 0 0 Z " fill="#E0E2E3" transform="translate(1080,543)"/>
<path d="M0 0 C1.09658936 3.28976808 0.79953138 4.71303767 0 8 C-0.66 7.34 -1.32 6.68 -2 6 C-1.44444444 1.44444444 -1.44444444 1.44444444 0 0 Z " fill="#4D535C" transform="translate(827,544)"/>
<path d="M0 0 C1.32 0.66 2.64 1.32 4 2 C4 2.66 4 3.32 4 4 C3.01 4.33 2.02 4.66 1 5 C0.01 4.34 -0.98 3.68 -2 3 C-1.34 2.01 -0.68 1.02 0 0 Z " fill="#4E525B" transform="translate(823,530)"/>
<path d="M0 0 C0.99 0 1.98 0 3 0 C3 2.64 3 5.28 3 8 C2.01 8.495 2.01 8.495 1 9 C1.020625 8.2575 1.04125 7.515 1.0625 6.75 C1.00671312 4.29537721 0.6930096 2.33890739 0 0 Z " fill="#464850" transform="translate(1087,528)"/>
<path d="M0 0 C2.31 0 4.62 0 7 0 C7 1.65 7 3.3 7 5 C3.535 3.02 3.535 3.02 0 1 C0 0.67 0 0.34 0 0 Z " fill="#565961" transform="translate(520,515)"/>
<path d="M0 0 C0 0.99 0 1.98 0 3 C-2.5 5.1875 -2.5 5.1875 -5 7 C-5.66 6.67 -6.32 6.34 -7 6 C-5.625 4.5 -5.625 4.5 -4 3 C-3.34 3 -2.68 3 -2 3 C-2 2.34 -2 1.68 -2 1 C-1.34 0.67 -0.68 0.34 0 0 Z " fill="#60646B" transform="translate(474,508)"/>
<path d="M0 0 C2.52588702 2.36292656 3.88820837 3.66462511 5 7 C4.01 7.33 3.02 7.66 2 8 C2 7.34 2 6.68 2 6 C1.34 5.67 0.68 5.34 0 5 C0 3.35 0 1.7 0 0 Z " fill="#FBE4E3" transform="translate(786,431)"/>
<path d="M0 0 C2.52588702 2.36292656 3.88820837 3.66462511 5 7 C2.37812506 5.95125002 1.20628639 5.35068687 -0.25 2.875 C-0.4975 2.25625 -0.745 1.6375 -1 1 C-0.67 0.67 -0.34 0.34 0 0 Z " fill="#F8E1E1" transform="translate(781,424)"/>
<path d="M0 0 C2.5 1.3125 2.5 1.3125 5 3 C5 3.99 5 4.98 5 6 C3.02 4.68 1.04 3.36 -1 2 C-0.67 1.34 -0.34 0.68 0 0 Z " fill="#EEF2F2" transform="translate(737,416)"/>
<path d="M0 0 C1.98 1.65 3.96 3.3 6 5 C5.34 5.66 4.68 6.32 4 7 C2 5.1875 2 5.1875 0 3 C0 2.01 0 1.02 0 0 Z " fill="#A05154" transform="translate(836,304)"/>
<path d="M0 0 C0.99 0.33 1.98 0.66 3 1 C1.25 5.875 1.25 5.875 -1 7 C-0.67 4.69 -0.34 2.38 0 0 Z " fill="#F6F7F7" transform="translate(893,284)"/>
</svg>